<?xml version="1.0" encoding="iso-8859-1"?>
<!-- Generator: Adobe Illustrator 19.0.0, SVG Export Plug-In . SVG Version: 6.00 Build 0)  -->
<svg version="1.1" id="Capa_1" xmlns="http://www.w3.org/2000/svg" xmlns:xlink="http://www.w3.org/1999/xlink" x="0px" y="0px"
	 viewBox="0 0 512 512" style="enable-background:new 0 0 512 512;" xml:space="preserve">
<g>
	<circle style="fill:#5B5F63;" cx="256" cy="256" r="256"/>
	<circle style="fill:#5B5F63;" cx="256" cy="256" r="256"/>
</g>
<g>
	<path style="fill:#FFFFFF;" d="M110.304,110.304c0-6.864-11.504-18.368-18.368-18.368c6.864,0,18.368-11.504,18.368-18.368
		c0,6.864,11.504,18.368,18.368,18.368C121.808,91.936,110.304,103.44,110.304,110.304z"/>
	<path style="fill:#FFFFFF;" d="M416.48,427.36c0-6.864-11.504-18.368-18.368-18.368c6.864,0,18.368-11.504,18.368-18.368
		c0,6.864,11.504,18.368,18.368,18.368C427.984,408.992,416.48,420.496,416.48,427.36z"/>
	<path style="fill:#FFFFFF;" d="M141.168,457.92c0-6.864-11.504-18.368-18.368-18.368c6.864,0,18.368-11.504,18.368-18.368
		c0,6.864,11.504,18.368,18.368,18.368C152.656,439.552,141.168,451.04,141.168,457.92z"/>
	<path style="fill:#FFFFFF;" d="M318.992,82.144c0-10.816-18.096-28.912-28.912-28.912c10.816,0,28.912-18.096,28.912-28.912
		c0,10.816,18.096,28.912,28.912,28.912C337.088,53.232,318.992,71.328,318.992,82.144z"/>
	<path style="fill:#FFFFFF;" d="M444.816,184.944c0-8.704-14.56-23.248-23.248-23.248c8.704,0,23.248-14.56,23.248-23.248
		c0,8.704,14.56,23.248,23.248,23.248C459.376,161.696,444.816,176.256,444.816,184.944z"/>
	<path style="fill:#FFFFFF;" d="M67.52,228.864c0-14.176-23.728-37.92-37.92-37.92c14.176,0,37.92-23.728,37.92-37.92
		c0,14.176,23.728,37.92,37.92,37.92C91.264,190.96,67.52,214.688,67.52,228.864z"/>
</g>
<path style="fill:#FFD83B;" d="M256,97.152c-5.952,0-11.584,1.12-17.376,1.76c79.44,8.768,141.472,75.312,141.472,157.088
	s-62.032,148.336-141.472,157.088c5.776,0.64,11.424,1.744,17.376,1.744c87.728,0,158.848-71.12,158.848-158.848
	C414.848,168.272,343.728,97.152,256,97.152z"/>
<g>
</g>
<g>
</g>
<g>
</g>
<g>
</g>
<g>
</g>
<g>
</g>
<g>
</g>
<g>
</g>
<g>
</g>
<g>
</g>
<g>
</g>
<g>
</g>
<g>
</g>
<g>
</g>
<g>
</g>
</svg>
