<svg xmlns="http://www.w3.org/2000/svg" viewBox="0 0 500 500"><g id="freepik--background-complete--inject-3"><path d="M415.63,319.21s-17.83-92.33-17.87-111.33c-.05-26.29,20.07-36.75,20.07-36.75L410,148.83h43L446.23,171s22.64,12,19.49,39.27c-5.91,51-15.32,109-15.32,109Z" style="fill:#f5f5f5"/><path d="M456.64,181.6a2.38,2.38,0,0,1-.47,0,12.29,12.29,0,0,0-1.41-.06,13.45,13.45,0,0,0-5.22,1.15,18.37,18.37,0,0,0-6.7,5.11,31.67,31.67,0,0,0-3.07,4.34,36.65,36.65,0,0,0-2.71,5.31,15.84,15.84,0,0,0-1.25,6.34,9.86,9.86,0,0,0,2.55,6.34,7,7,0,0,0,3,1.91,6,6,0,0,0,3.67-.1,8.63,8.63,0,0,0,5.15-5.57,8.34,8.34,0,0,0-1.8-7.71,12.53,12.53,0,0,0-7.38-4.27,16.75,16.75,0,0,0-8.89,1.06,29.12,29.12,0,0,0-17.38,20.46,19.32,19.32,0,0,0,.17,8.7,12.76,12.76,0,0,0,4.24,7,7.36,7.36,0,0,0,3.56,1.64,5.5,5.5,0,0,0,3.67-.73,7.54,7.54,0,0,0,3.28-6.3,7.8,7.8,0,0,0-.68-3.43,8.7,8.7,0,0,0-2.06-2.7,11.94,11.94,0,0,0-5.8-2.7,16.66,16.66,0,0,0-10.84,1.88,19.6,19.6,0,0,0-6.4,5.51,17.91,17.91,0,0,0-2.58,4.71c-.43,1.15-.57,1.79-.61,1.78a12.71,12.71,0,0,1,.49-1.83,17.39,17.39,0,0,1,2.51-4.8,19.55,19.55,0,0,1,6.42-5.67,16.93,16.93,0,0,1,11.09-2,12.39,12.39,0,0,1,6,2.78,9.05,9.05,0,0,1,2.18,2.84,8.24,8.24,0,0,1,.75,3.65,8.07,8.07,0,0,1-3.51,6.76,6,6,0,0,1-4,.81,7.92,7.92,0,0,1-3.84-1.74,13.39,13.39,0,0,1-4.45-7.33,20,20,0,0,1-.2-9,28.66,28.66,0,0,1,9.6-15.94,28.19,28.19,0,0,1,8.16-5,17.4,17.4,0,0,1,9.22-1.09,13.2,13.2,0,0,1,7.73,4.5,10.4,10.4,0,0,1,2,3.93,7.83,7.83,0,0,1-.12,4.32,9.18,9.18,0,0,1-5.52,5.92,6.63,6.63,0,0,1-4,.09,7.57,7.57,0,0,1-3.27-2.07,10.42,10.42,0,0,1-2.65-6.68,16.32,16.32,0,0,1,1.33-6.51,38.43,38.43,0,0,1,2.77-5.36,32,32,0,0,1,3.15-4.35,18.58,18.58,0,0,1,6.87-5.12,13.09,13.09,0,0,1,5.32-1A7.82,7.82,0,0,1,456.64,181.6Z" style="fill:#e0e0e0"/><path d="M457.76,251.34a15.47,15.47,0,0,1-.39,4.7,20.34,20.34,0,0,1-1.89,5.21,20.09,20.09,0,0,1-4.5,5.8,18.8,18.8,0,0,1-7.87,4.13,19.24,19.24,0,0,1-10.2-.15,17.72,17.72,0,0,1-9.17-6.47,17.12,17.12,0,0,1-3.53-11.5,8.52,8.52,0,0,1,2.55-5.66,6.15,6.15,0,0,1,5.86-1.16,7.4,7.4,0,0,1,4.55,3.64,8.4,8.4,0,0,1,.59,5.56,10.27,10.27,0,0,1-2.46,4.71,11.93,11.93,0,0,1-4.13,2.85,17.33,17.33,0,0,1-8.81,1.11,21.14,21.14,0,0,1-11.58-5.31,15.47,15.47,0,0,1-3-3.6s.08.07.21.23l.57.71a21.91,21.91,0,0,0,2.42,2.48,20.8,20.8,0,0,0,4.56,3,20.43,20.43,0,0,0,6.91,2,16.87,16.87,0,0,0,8.56-1.14,11.59,11.59,0,0,0,3.93-2.74,9.78,9.78,0,0,0,2.31-4.47,7.79,7.79,0,0,0-.57-5.17,6.78,6.78,0,0,0-4.18-3.33,5.59,5.59,0,0,0-5.3,1,7.88,7.88,0,0,0-2.33,5.26,16.53,16.53,0,0,0,3.39,11.08,17.34,17.34,0,0,0,8.86,6.29,18.75,18.75,0,0,0,9.9.19,18.29,18.29,0,0,0,7.71-4,19.92,19.92,0,0,0,4.49-5.63,20.82,20.82,0,0,0,1.95-5.1,21.74,21.74,0,0,0,.54-3.43c0-.37,0-.67.05-.91A1.61,1.61,0,0,1,457.76,251.34Z" style="fill:#e0e0e0"/><path d="M449.75,294.86c-.06.12-1.93-.89-5.18-1.83a26.6,26.6,0,0,0-2.69-.65c-1-.22-2-.33-3.14-.47a37.47,37.47,0,0,0-7.25,0,37,37,0,0,0-7.09,1.56c-1,.38-2.06.72-2.95,1.15a26.35,26.35,0,0,0-2.49,1.22c-3,1.64-4.57,3-4.65,2.93a8.36,8.36,0,0,1,1.1-1,13.83,13.83,0,0,1,1.39-1.05,23,23,0,0,1,1.95-1.26,23.71,23.71,0,0,1,2.48-1.3c.91-.46,1.92-.82,3-1.23a35.57,35.57,0,0,1,7.2-1.64,36.32,36.32,0,0,1,7.38,0c1.13.17,2.2.29,3.18.54a25,25,0,0,1,2.71.73c.83.23,1.54.55,2.18.79a12.92,12.92,0,0,1,1.59.73A6.35,6.35,0,0,1,449.75,294.86Z" style="fill:#e0e0e0"/><path d="M446.75,172.29a9.62,9.62,0,0,1-1.42,1c-.94.61-2.33,1.43-4.1,2.37a70.4,70.4,0,0,1-30,8c-2,.07-3.61.06-4.73,0a8,8,0,0,1-1.73-.15,10,10,0,0,1,1.73-.09c1.12,0,2.73-.06,4.71-.19a78,78,0,0,0,29.79-8c1.78-.88,3.21-1.64,4.17-2.19A9.6,9.6,0,0,1,446.75,172.29Z" style="fill:#e0e0e0"/><path d="M452.16,149.89c0,.06-1.05-.1-3-.1a25.4,25.4,0,0,0-7.91,1.29,24.72,24.72,0,0,0-5,2.3,23.43,23.43,0,0,0-2.53,1.75,12.33,12.33,0,0,0-2.32,2.25,6.71,6.71,0,0,0-1.41,3,3.4,3.4,0,0,0,1,3.05,7.31,7.31,0,0,0,3.18,1.6,7.93,7.93,0,0,0,3.64.42,2.75,2.75,0,0,0,2-2.6,6.35,6.35,0,0,0-.72-3.47,11,11,0,0,0-4.79-4.82,14,14,0,0,0-6-1.63,16.65,16.65,0,0,0-5.43.8,24.8,24.8,0,0,0-7.08,3.74c-.76.57-1.34,1-1.73,1.35a5.11,5.11,0,0,1-.61.47s.17-.21.53-.56.92-.85,1.66-1.46a23.9,23.9,0,0,1,7.1-4,16.74,16.74,0,0,1,5.58-.9,14.44,14.44,0,0,1,6.28,1.64,11.48,11.48,0,0,1,5.07,5.06,7.06,7.06,0,0,1,.78,3.79,4.11,4.11,0,0,1-.67,1.94A3,3,0,0,1,438,166a8.43,8.43,0,0,1-4-.43,7.82,7.82,0,0,1-3.43-1.76,4,4,0,0,1-1.15-3.58A7.12,7.12,0,0,1,431,157a13.28,13.28,0,0,1,2.42-2.33,23.91,23.91,0,0,1,2.61-1.76,25.17,25.17,0,0,1,5.16-2.28,24.1,24.1,0,0,1,8-1.11,20.22,20.22,0,0,1,2.21.19A3.55,3.55,0,0,1,452.16,149.89Z" style="fill:#e0e0e0"/><polygon points="176.29 83.3 176.29 167.97 54.69 167.97 50.31 83.9 176.29 83.3" style="fill:#e0e0e0"/><rect width="83.9" height="121.6" x="69.16" y="65.04" transform="translate(-14.73 236.95) rotate(-90)" style="fill:#fff"/><path d="M172.49,168.37H49.73V83.32H172.49ZM50.88,167.21H171.33V84.47H50.88Z" style="fill:#e0e0e0"/><rect width="95.26" height="63.05" x="63.48" y="94.32" style="fill:#fff"/><path d="M158.74,94.32l-.47,0h-1.35l-5.24,0-19.63.07-68.57.13.27-.27c0,19.26,0,40.61,0,63h0l-.3-.3,95.26.06-.24.24c.05-19.19.1-34.92.13-45.88,0-5.47,0-9.75.06-12.68,0-1.45,0-2.56,0-3.33s0-1.16,0-1.16,0,.37,0,1.11,0,1.85,0,3.28c0,2.92,0,7.18.06,12.64,0,11,.08,26.77.13,46v.24h-.24l-95.26.06h-.3v-.3h0c0-22.43,0-43.78,0-63V94h.28l68.75.14,19.57.07,5.18,0h1.32Z" style="fill:#e0e0e0"/><path d="M50.31,83.66A10.51,10.51,0,0,1,52.4,85c1.24.9,2.94,2.18,4.77,3.64s3.43,2.85,4.57,3.89a9.9,9.9,0,0,1,1.74,1.78c-.11.13-3-2.28-6.69-5.2S50.2,83.8,50.31,83.66Z" style="fill:#e0e0e0"/><path d="M171.91,83.9a59.73,59.73,0,0,1-6.4,5.44,59.76,59.76,0,0,1-6.77,5,59.09,59.09,0,0,1,6.4-5.45A58.87,58.87,0,0,1,171.91,83.9Z" style="fill:#e0e0e0"/><path d="M171.81,167.8l-13.55-11" style="fill:#fff"/><path d="M158.26,156.81a65.52,65.52,0,0,1,7,5.27c3.75,3,6.7,5.59,6.59,5.72a63,63,0,0,1-7-5.26C161.1,159.51,158.15,156.94,158.26,156.81Z" style="fill:#e0e0e0"/><path d="M50.31,167.79c-.11-.13,2.73-2.54,6.33-5.39a57.88,57.88,0,0,1,6.7-4.92c.11.13-2.73,2.54-6.33,5.39A57.88,57.88,0,0,1,50.31,167.79Z" style="fill:#e0e0e0"/><rect width="21.11" height="59.94" x="102.23" y="94.55" transform="translate(-11.73 237.31) rotate(-90)" style="fill:#e0e0e0"/><rect width="95.87" height="99.94" x="224.27" y="29.61" style="fill:#e0e0e0"/><rect width="95.87" height="99.94" x="217.78" y="29.61" style="fill:#fafafa"/><path d="M313.68,129.58H217.75v-100h95.93Zm-95.87-.06h95.81V29.64H217.81Z" style="fill:#e0e0e0"/><rect width="70.1" height="73.07" x="230.66" y="43.05" style="fill:#fafafa"/><path d="M230.66,116.6a11,11,0,0,1-1.73,2c-1.12,1.19-2.69,2.78-4.45,4.52s-3.39,3.29-4.58,4.38a11.36,11.36,0,0,1-2,1.69,11.17,11.17,0,0,1,1.72-2c1.12-1.18,2.7-2.79,4.47-4.53s3.39-3.29,4.59-4.39A11.35,11.35,0,0,1,230.66,116.6Z" style="fill:#e0e0e0"/><path d="M300.76,116.42a11.49,11.49,0,0,1,2,1.73c1.18,1.12,2.78,2.7,4.52,4.46s3.28,3.38,4.38,4.58a11.14,11.14,0,0,1,1.69,2,11.17,11.17,0,0,1-2-1.72c-1.18-1.12-2.79-2.69-4.53-4.46s-3.29-3.39-4.39-4.59A11.16,11.16,0,0,1,300.76,116.42Z" style="fill:#e0e0e0"/><path d="M300.57,43.24a11.37,11.37,0,0,1,1.73-2c1.12-1.18,2.69-2.78,4.45-4.52s3.39-3.28,4.58-4.38a11.36,11.36,0,0,1,2-1.69,11.4,11.4,0,0,1-1.72,2c-1.12,1.18-2.7,2.78-4.47,4.52s-3.39,3.29-4.58,4.39A11,11,0,0,1,300.57,43.24Z" style="fill:#e0e0e0"/><path d="M230.47,43.42a11.37,11.37,0,0,1-2-1.73c-1.18-1.12-2.78-2.69-4.52-4.45s-3.28-3.39-4.38-4.58a11.36,11.36,0,0,1-1.69-2,11.4,11.4,0,0,1,2,1.72c1.18,1.12,2.78,2.7,4.52,4.47s3.29,3.39,4.39,4.58A11,11,0,0,1,230.47,43.42Z" style="fill:#e0e0e0"/><path d="M300.57,116.12a2.81,2.81,0,0,1,0-.36c0-.25,0-.58,0-1,0-.91,0-2.23,0-3.94,0-3.46,0-8.5-.07-14.89,0-12.8-.08-31-.14-52.86l.27.27-69.9,0h0l.31-.31c0,26.82,0,51.91,0,73.07l-.27-.27,50.62.14,14.22.07,3.76,0h1l.34,0h-.31l-.94,0-3.71,0-14.16.07-50.79.13h-.26v-.26c0-21.16,0-46.25-.05-73.07v-.31h.32l69.9,0h.27v.27c-.06,21.9-.1,40.19-.14,53,0,6.37-.05,11.38-.07,14.83,0,1.69,0,3,0,3.89,0,.42,0,.75,0,1S300.57,116.12,300.57,116.12Z" style="fill:#e0e0e0"/><rect width="23.39" height="23.39" x="254.02" y="67.89" style="fill:#ebebeb"/><path d="M452.23,371.94a134.79,134.79,0,0,1-16.08,0,129.41,129.41,0,0,1,16.08,0Z" style="fill:#e0e0e0"/><path d="M453.33,367.38a89,89,0,0,1-9.46.25,89.16,89.16,0,0,1-9.46-.25,89.16,89.16,0,0,1,9.46-.25A89,89,0,0,1,453.33,367.38Z" style="fill:#e0e0e0"/><path d="M447.18,362.2a117,117,0,0,1-15.29,0,117,117,0,0,1,15.29,0Z" style="fill:#e0e0e0"/><path d="M449.23,353.92c0,.13-4.55.24-10.17.24s-10.17-.11-10.17-.24,4.56-.25,10.17-.25S449.23,353.78,449.23,353.92Z" style="fill:#e0e0e0"/><path d="M449.08,349.57c0,.13-4.52.24-10.09.24s-10.1-.11-10.1-.24,4.52-.25,10.1-.25S449.08,349.43,449.08,349.57Z" style="fill:#e0e0e0"/><path d="M447.5,344.18c0,.14-4.8.25-10.72.25s-10.72-.11-10.72-.25,4.8-.24,10.72-.24S447.5,344.05,447.5,344.18Z" style="fill:#e0e0e0"/><path d="M443.56,336.93a96.69,96.69,0,0,1-9.86.25,96.57,96.57,0,0,1-9.85-.25c0-.13,4.41-.24,9.85-.24S443.56,336.8,443.56,336.93Z" style="fill:#e0e0e0"/><path d="M453.81,377.73A96.85,96.85,0,0,1,444,378a96.57,96.57,0,0,1-9.85-.25c0-.13,4.41-.24,9.85-.24S453.81,377.6,453.81,377.73Z" style="fill:#e0e0e0"/><path d="M455.23,386.23c0,.13-4.35.24-9.7.24s-9.7-.11-9.7-.24a93.61,93.61,0,0,1,9.7-.25A93.77,93.77,0,0,1,455.23,386.23Z" style="fill:#e0e0e0"/><path d="M456.8,391.2a94.25,94.25,0,0,1-9.46.24,94.41,94.41,0,0,1-9.46-.24,89.16,89.16,0,0,1,9.46-.25A89,89,0,0,1,456.8,391.2Z" style="fill:#e0e0e0"/><path d="M461.53,396c0,.14-4.69.25-10.48.25s-10.49-.11-10.49-.25,4.7-.25,10.49-.25S461.53,395.82,461.53,396Z" style="fill:#e0e0e0"/><path d="M462.32,403.62a87.6,87.6,0,0,1-9.38.25,87.6,87.6,0,0,1-9.38-.25,92.76,92.76,0,0,1,9.38-.24A92.76,92.76,0,0,1,462.32,403.62Z" style="fill:#e0e0e0"/><path d="M463.9,407.63a88.93,88.93,0,0,1-9.36,1.06,90.29,90.29,0,0,1-9.4.56,90.26,90.26,0,0,1,9.36-1.05A92.17,92.17,0,0,1,463.9,407.63Z" style="fill:#e0e0e0"/><path d="M465.48,413.43c0,.13-4.7.31-10.49.39s-10.48,0-10.48-.09,4.69-.32,10.48-.4S465.47,413.29,465.48,413.43Z" style="fill:#e0e0e0"/><path d="M465.78,420.69a89.74,89.74,0,0,1-9.44,1.06,93.69,93.69,0,0,1-9.48.57,90.61,90.61,0,0,1,9.44-1.06A93.82,93.82,0,0,1,465.78,420.69Z" style="fill:#e0e0e0"/><path d="M464.85,427.5a15.7,15.7,0,0,1-2.59.56c-1.6.3-3.82.71-6.26,1.2s-4.63,1-6.22,1.35a15,15,0,0,1-2.6.5,12,12,0,0,1,2.51-.84c1.57-.44,3.77-1,6.22-1.49s4.67-.86,6.3-1.07A12.2,12.2,0,0,1,464.85,427.5Z" style="fill:#e0e0e0"/><path d="M468,435.4a17.75,17.75,0,0,1-2.67.19c-1.65.08-3.92.21-6.42.44s-4.76.52-6.4.74a16.08,16.08,0,0,1-2.66.3,12.09,12.09,0,0,1,2.61-.64c1.62-.31,3.88-.66,6.4-.89s4.81-.31,6.46-.3A12,12,0,0,1,468,435.4Z" style="fill:#e0e0e0"/><path d="M471.15,442.34a18.47,18.47,0,0,1-2.78,0c-1.71,0-4.08,0-6.69,0s-5,.26-6.68.41a19.13,19.13,0,0,1-2.77.17,14.19,14.19,0,0,1,2.74-.52,63.33,63.33,0,0,1,6.7-.55,66.38,66.38,0,0,1,6.72.11A13.85,13.85,0,0,1,471.15,442.34Z" style="fill:#e0e0e0"/><path d="M471.78,448.4a21.79,21.79,0,0,1-3-.08c-1.87-.09-4.45-.2-7.3-.21s-5.43.07-7.29.14a21.5,21.5,0,0,1-3,.06,16.93,16.93,0,0,1,3-.41c1.87-.16,4.46-.3,7.33-.28s5.45.17,7.31.35A16.5,16.5,0,0,1,471.78,448.4Z" style="fill:#e0e0e0"/><path d="M473.2,454a97.5,97.5,0,0,1-10,.55c-5.53.17-10,.2-10,.06s4.47-.38,10-.55S473.2,453.85,473.2,454Z" style="fill:#e0e0e0"/><path d="M473.83,458.73c0,.13-4.54.44-10.16.69s-10.18.34-10.18.21,4.54-.45,10.16-.7S473.83,458.59,473.83,458.73Z" style="fill:#e0e0e0"/><path d="M477.77,466.76a32.55,32.55,0,0,1-3.43,0c-2.12,0-5,0-8.26.24s-6.13.54-8.23.82a28,28,0,0,1-3.41.39,3.47,3.47,0,0,1,.89-.25c.58-.14,1.42-.31,2.47-.49a80.78,80.78,0,0,1,8.25-1,76.7,76.7,0,0,1,8.3-.1c1.06.05,1.92.1,2.51.17A2.68,2.68,0,0,1,477.77,466.76Z" style="fill:#e0e0e0"/><path d="M478.87,472.09c0,.13-4.89.49-10.94.79s-11,.43-11,.29,4.89-.49,11-.79S478.87,472,478.87,472.09Z" style="fill:#e0e0e0"/><path d="M108.8,341.73a15.39,15.39,0,0,1-2.89.36c-1.79.15-4.28.26-7,.23s-5.23-.19-7-.37a16.21,16.21,0,0,1-2.89-.42,20.1,20.1,0,0,1,2.91.08c1.8.08,4.27.19,7,.22s5.21,0,7-.09A17.93,17.93,0,0,1,108.8,341.73Z" style="fill:#e0e0e0"/><path d="M113,336.65c0,.13-5.15.35-11.51.48s-11.52.13-11.52,0,5.15-.35,11.51-.48S113,336.51,113,336.65Z" style="fill:#e0e0e0"/><path d="M103.6,347.37a19.61,19.61,0,0,1-3.22.34c-2,.13-4.75.23-7.8.21s-5.81-.17-7.8-.34a17.58,17.58,0,0,1-3.21-.4,25.11,25.11,0,0,1,3.23.05c2,.08,4.75.17,7.79.2s5.79,0,7.78-.07A23.58,23.58,0,0,1,103.6,347.37Z" style="fill:#e0e0e0"/><path d="M105,355.33c0,.14-5.92.13-13.22,0s-13.22-.38-13.22-.51,5.93-.13,13.23,0S105,355.2,105,355.33Z" style="fill:#e0e0e0"/><path d="M99.19,359.6a3.52,3.52,0,0,1-.91.16c-.59.08-1.45.17-2.51.25-2.12.16-5.06.28-8.31.22s-6.19-.28-8.3-.52c-1.06-.12-1.91-.23-2.5-.33a3.86,3.86,0,0,1-.91-.2,31.34,31.34,0,0,1,3.44.18c2.12.15,5,.32,8.28.38s6.16,0,8.28-.08A27.5,27.5,0,0,1,99.19,359.6Z" style="fill:#e0e0e0"/><path d="M99.19,365.2a30.08,30.08,0,0,1-3.47-.56c-2.14-.36-5.1-.79-8.39-1.06s-6.29-.3-8.46-.27a32.35,32.35,0,0,1-3.51,0,4.09,4.09,0,0,1,.93-.15c.61-.08,1.49-.15,2.57-.2a65.84,65.84,0,0,1,8.5.13,68.77,68.77,0,0,1,8.42,1.21c1.06.23,1.92.43,2.51.6A3.92,3.92,0,0,1,99.19,365.2Z" style="fill:#e0e0e0"/><path d="M95.8,372.18a5,5,0,0,1-1.14-.16l-3-.59c-2.58-.5-6.14-1.17-10.1-1.81s-7.55-1.11-10.15-1.44l-3.09-.4a5.83,5.83,0,0,1-1.13-.2,5.41,5.41,0,0,1,1.15,0c.73,0,1.8.12,3.11.24,2.62.24,6.23.67,10.19,1.3s7.53,1.37,10.09,2c1.28.29,2.32.55,3,.74A5.77,5.77,0,0,1,95.8,372.18Z" style="fill:#e0e0e0"/><path d="M92.58,378.58c0,.13-5.3.1-11.82-.07S68.94,378.09,69,378s5.29-.1,11.82.07S92.59,378.44,92.58,378.58Z" style="fill:#e0e0e0"/><path d="M85.37,385.56c0,.13-5.33.22-11.91.19s-11.92-.16-11.92-.29,5.34-.23,11.92-.2S85.37,385.42,85.37,385.56Z" style="fill:#e0e0e0"/><path d="M83,393.39a26.43,26.43,0,0,1-3.34-.29c-2.06-.21-4.91-.49-8.05-.69s-6-.3-8.08-.36a26.21,26.21,0,0,1-3.35-.15,3.52,3.52,0,0,1,.9-.11c.57,0,1.41-.07,2.45-.09,2.08,0,4.95,0,8.11.22s6,.53,8.06.84c1,.15,1.86.29,2.43.4A3.07,3.07,0,0,1,83,393.39Z" style="fill:#e0e0e0"/><path d="M80,398.78a3.1,3.1,0,0,1-.92.11c-.6,0-1.46.06-2.52.06-2.14,0-5.08,0-8.33-.28s-6.17-.6-8.28-.93c-1-.17-1.9-.31-2.48-.44a3.59,3.59,0,0,1-.9-.23,27.44,27.44,0,0,1,3.43.32c2.11.24,5,.55,8.27.79s6.17.36,8.29.43A29.57,29.57,0,0,1,80,398.78Z" style="fill:#e0e0e0"/><path d="M74.16,405.15a17.61,17.61,0,0,1-2.77-.22c-1.69-.18-4-.41-6.63-.6s-5-.28-6.66-.34a17.65,17.65,0,0,1-2.77-.17,13.47,13.47,0,0,1,2.77-.18c1.71,0,4.08,0,6.69.2s5,.48,6.65.75A14.8,14.8,0,0,1,74.16,405.15Z" style="fill:#e0e0e0"/><path d="M73.15,413.61a23.63,23.63,0,0,1-3.22-.64c-2-.43-4.72-1-7.76-1.58s-5.8-1-7.8-1.29a25.43,25.43,0,0,1-3.24-.55,3.4,3.4,0,0,1,.89,0c.56,0,1.38.1,2.39.21,2,.21,4.8.59,7.85,1.15s5.79,1.2,7.75,1.72c1,.27,1.77.49,2.31.66A3.53,3.53,0,0,1,73.15,413.61Z" style="fill:#e0e0e0"/><path d="M63.74,418.85a17.1,17.1,0,0,1-2.67-.39c-1.64-.29-3.9-.67-6.42-1s-4.79-.57-6.45-.72a16.33,16.33,0,0,1-2.68-.32,13.81,13.81,0,0,1,2.7,0c1.67.07,4,.24,6.5.58s4.79.77,6.42,1.14A13.93,13.93,0,0,1,63.74,418.85Z" style="fill:#e0e0e0"/><path d="M62.14,423.57a24.41,24.41,0,0,1-3.23-.32c-2-.24-4.73-.56-7.77-.85s-5.8-.5-7.8-.64a25.09,25.09,0,0,1-3.23-.31,19.15,19.15,0,0,1,3.25,0c2,0,4.78.2,7.82.49s5.8.68,7.78,1A18.5,18.5,0,0,1,62.14,423.57Z" style="fill:#e0e0e0"/><path d="M59.74,429.34a21.2,21.2,0,0,1-3.06,0c-1.88,0-4.49-.07-7.36,0s-5.47.15-7.35.23a21,21,0,0,1-3.06.07,17.46,17.46,0,0,1,3-.42c1.88-.17,4.49-.33,7.38-.37s5.49.06,7.38.18A17.68,17.68,0,0,1,59.74,429.34Z" style="fill:#e0e0e0"/><path d="M60.34,435.64a16.79,16.79,0,0,1-2.65-.13c-1.63-.11-3.88-.22-6.37-.18s-4.74.21-6.36.38a18.26,18.26,0,0,1-2.65.21,11.84,11.84,0,0,1,2.6-.56,48.54,48.54,0,0,1,6.4-.52,48,48,0,0,1,6.41.32A12.61,12.61,0,0,1,60.34,435.64Z" style="fill:#e0e0e0"/><path d="M52.73,443a17.6,17.6,0,0,1-2.57-.49c-1.58-.32-3.76-.73-6.19-1s-4.65-.42-6.26-.47a17.2,17.2,0,0,1-2.61-.14,11.39,11.39,0,0,1,2.61-.21A44.73,44.73,0,0,1,44,441a48.33,48.33,0,0,1,6.21,1.17A11.75,11.75,0,0,1,52.73,443Z" style="fill:#e0e0e0"/><path d="M47.12,451.5a98.4,98.4,0,0,1-10,0c-5.53-.12-10-.33-10-.46s4.49-.15,10,0S47.13,451.37,47.12,451.5Z" style="fill:#e0e0e0"/><path d="M42.32,456.39a24.62,24.62,0,0,1-4.84-.41,23.66,23.66,0,0,1-4.77-.91,24.3,24.3,0,0,1,4.84.42A23.47,23.47,0,0,1,42.32,456.39Z" style="fill:#e0e0e0"/><path d="M44.52,465.92a17,17,0,0,1-2.76-.41c-1.7-.29-4-.69-6.63-1.05s-5-.61-6.67-.79a17.84,17.84,0,0,1-2.77-.35,13.64,13.64,0,0,1,2.79,0c1.73.09,4.1.29,6.71.65s5,.82,6.63,1.2A14.09,14.09,0,0,1,44.52,465.92Z" style="fill:#e0e0e0"/><polygon points="109.84 333.56 32.14 475.01 462.08 475.22 427.3 335.39 109.84 333.56" style="fill:#ebebeb"/><polygon points="44.66 452.21 456.36 452.21 450.48 428.58 55.07 433.26 44.66 452.21" style="fill:#fafafa"/><polygon points="68.48 408.78 445.55 408.78 439.74 385.4 78.89 389.82 68.48 408.78" style="fill:#fafafa"/><polygon points="92.34 365.35 434.75 365.35 428.87 341.72 102.76 346.39 92.34 365.35" style="fill:#fafafa"/></g><g id="freepik--Plant--inject-3"><path d="M89.15,208A10,10,0,0,1,84,202.89c-.41-.95-.42-2.42.59-2.63.62-.13,1.18.35,1.63.79l4.51,4.47A9.44,9.44,0,0,1,91,198.2c.38-.81,1.18-1.67,2-1.37.67.25.88,1.07,1,1.77l1.08,6.45a15.47,15.47,0,0,1,3.54-6.76c.62-.7,1.63-1.38,2.42-.88s.66,1.45.51,2.26a32,32,0,0,1-1.68,5.92,11.16,11.16,0,0,1,7-2.78,2.49,2.49,0,0,1,2.07.67c.7.88.09,2.18-.66,3-2.2,2.5-7.38,3.14-10.71,2.92" style="fill:#3b82f6"/><path d="M109.08,213.35c-8.07-6.35-22.25-7.25-31.58-3-10.54,4.82-17.44,16-18.47,26.8-1,10.22,3.95,20.58,8.13,30l40.74.19c4.89-8.07,10-17.11,10.3-26.54S116.49,219.18,109.08,213.35Z" style="fill:#455a64"/><path d="M90.8,207.74s-.06,0-.18,0l-.53.13-.86.19a7.21,7.21,0,0,0-1.17.3,23.39,23.39,0,0,0-6.9,3.31,31.26,31.26,0,0,0-7.86,8.16A46.89,46.89,0,0,0,70,225.75a49.83,49.83,0,0,0-2.53,6.77,30.94,30.94,0,0,0-.69,13.8,58.75,58.75,0,0,0,3.07,11c1.13,3.05,2.13,5.49,2.8,7.19.32.83.58,1.48.76,2l.19.51c0,.12.06.18,0,.18s0,0-.09-.16l-.22-.5-.83-1.93c-.71-1.68-1.75-4.11-2.92-7.16a57.87,57.87,0,0,1-3.16-11,31,31,0,0,1,.67-14,50.09,50.09,0,0,1,2.56-6.82A45.7,45.7,0,0,1,73,219.68a30.77,30.77,0,0,1,8-8.18,22.11,22.11,0,0,1,7-3.23A7.2,7.2,0,0,1,89.2,208l.88-.16.54-.08C90.74,207.74,90.8,207.73,90.8,207.74Z" style="fill:#263238"/><path d="M102.67,267a3.48,3.48,0,0,1,.19-.61c.15-.43.35-1,.61-1.72.53-1.49,1.32-3.65,2.23-6.33s1.94-5.89,2.83-9.52a62.48,62.48,0,0,0,1.81-12,41.58,41.58,0,0,0-1.25-12,32.8,32.8,0,0,0-3.82-9.09,26.68,26.68,0,0,0-4.17-5.2c-.54-.58-1-.94-1.34-1.23a3.52,3.52,0,0,1-.46-.43,4,4,0,0,1,.51.37,18,18,0,0,1,1.4,1.18,25.49,25.49,0,0,1,4.29,5.16,32.66,32.66,0,0,1,3.94,9.15,41.6,41.6,0,0,1,1.28,12.13,60.75,60.75,0,0,1-1.85,12.06c-.91,3.64-2,6.85-2.92,9.52s-1.77,4.82-2.34,6.29c-.29.71-.51,1.28-.68,1.7A5.58,5.58,0,0,1,102.67,267Z" style="fill:#263238"/><path d="M94.8,208a3.64,3.64,0,0,1-.16.59l-.53,1.69c-.24.73-.52,1.63-.82,2.67s-.69,2.23-1.05,3.56c-.76,2.63-1.56,5.8-2.37,9.33s-1.53,7.46-2.15,11.6-1,8.11-1.26,11.72c-.08,1.81-.21,3.53-.22,5.14,0,.81,0,1.59,0,2.34s0,1.46,0,2.15c0,1.37,0,2.61.09,3.7s.08,2,.14,2.79.08,1.33.1,1.76a2.9,2.9,0,0,1,0,.62,4.32,4.32,0,0,1-.08-.61c0-.44-.11-1-.18-1.76s-.16-1.7-.2-2.79-.14-2.33-.15-3.71c0-.69,0-1.41,0-2.15s0-1.54,0-2.34c0-1.62.11-3.34.19-5.16.23-3.63.62-7.61,1.23-11.76s1.39-8.07,2.19-11.62,1.66-6.7,2.45-9.33c.38-1.32.77-2.5,1.1-3.54s.63-1.93.89-2.66l.6-1.66A3.73,3.73,0,0,1,94.8,208Z" style="fill:#263238"/><path d="M60.33,240.42a13.71,13.71,0,0,1-2.79,1.48A13.55,13.55,0,0,1,54.6,243a12.91,12.91,0,0,1,2.78-1.48A12.74,12.74,0,0,1,60.33,240.42Z" style="fill:#263238"/><path d="M61.62,228.71a15.87,15.87,0,0,1-3.06-1.54,15.5,15.5,0,0,1-2.86-1.88,15.65,15.65,0,0,1,3,1.54A15.82,15.82,0,0,1,61.62,228.71Z" style="fill:#263238"/><path d="M69.05,219.05a10.41,10.41,0,0,1-1.35-2.4,10.58,10.58,0,0,1-1-2.55,19.39,19.39,0,0,1,2.35,5Z" style="fill:#263238"/><path d="M79.26,209.92a7.11,7.11,0,0,1-1.48-1.67,6.89,6.89,0,0,1-1.17-1.9A6.43,6.43,0,0,1,78.09,208,6.33,6.33,0,0,1,79.26,209.92Z" style="fill:#263238"/><path d="M64.94,254.71a14.23,14.23,0,0,1-2.85,1.76,15.08,15.08,0,0,1-3,1.43,14.23,14.23,0,0,1,2.85-1.76A15.08,15.08,0,0,1,64.94,254.71Z" style="fill:#263238"/><path d="M77.11,247.59a10.39,10.39,0,0,1-2.61-1.24,11,11,0,0,1-2.41-1.57,11.07,11.07,0,0,1,2.6,1.24A11.3,11.3,0,0,1,77.11,247.59Z" style="fill:#263238"/><path d="M80.5,231.33A7.73,7.73,0,0,1,78,232.67a7.85,7.85,0,0,1-2.75.71,18,18,0,0,1,2.61-1.07A16.26,16.26,0,0,1,80.5,231.33Z" style="fill:#263238"/><path d="M84.36,219.07a4.76,4.76,0,0,1-1-2,4.69,4.69,0,0,1-.4-2.22,11.72,11.72,0,0,1,.76,2.09A11.09,11.09,0,0,1,84.36,219.07Z" style="fill:#263238"/><path d="M75.73,263.56a11.09,11.09,0,0,1,1.09-2.74,11.72,11.72,0,0,1,1.44-2.57A11.09,11.09,0,0,1,77.17,261,12,12,0,0,1,75.73,263.56Z" style="fill:#263238"/><path d="M96.26,259.19a12,12,0,0,1-4.11-4.81c.09-.06.89,1.11,2,2.43A31,31,0,0,1,96.26,259.19Z" style="fill:#263238"/><path d="M103.38,241.28a14.8,14.8,0,0,1-2.84,1.85,15.29,15.29,0,0,1-3,1.52,15.38,15.38,0,0,1,2.84-1.85A15.29,15.29,0,0,1,103.38,241.28Z" style="fill:#263238"/><path d="M98.59,230.27a13.25,13.25,0,0,1,2.2-2.34,14.25,14.25,0,0,1,2.46-2.07,12.81,12.81,0,0,1-2.2,2.34A14.25,14.25,0,0,1,98.59,230.27Z" style="fill:#263238"/><path d="M98.8,218.58A10.37,10.37,0,0,1,96.56,217a10.12,10.12,0,0,1-2-1.87,9.41,9.41,0,0,1,2.25,1.57A10.08,10.08,0,0,1,98.8,218.58Z" style="fill:#263238"/><path d="M112.38,210.85a10.56,10.56,0,0,1-2.23,1.68,10.19,10.19,0,0,1-2.44,1.36,10.18,10.18,0,0,1,2.23-1.68A10.19,10.19,0,0,1,112.38,210.85Z" style="fill:#263238"/><path d="M117.61,221.56a7.13,7.13,0,0,1-2.33.36,7.13,7.13,0,0,1-2.35,0,7.72,7.72,0,0,1,2.32-.36A7.2,7.2,0,0,1,117.61,221.56Z" style="fill:#263238"/><path d="M121,234.22a11.07,11.07,0,0,1-3-.09,12.21,12.21,0,0,1-2.93-.47,11.06,11.06,0,0,1,3,.09A12.21,12.21,0,0,1,121,234.22Z" style="fill:#263238"/><path d="M119.33,250.56a18.35,18.35,0,0,1-2.73-2.49,17.94,17.94,0,0,1-2.45-2.75,17.51,17.51,0,0,1,2.72,2.48A17,17,0,0,1,119.33,250.56Z" style="fill:#263238"/><path d="M114.88,263.14a12.36,12.36,0,0,1-2.76-2.67,12.84,12.84,0,0,1-2.13-3.18,37.75,37.75,0,0,1,2.43,2.94C113.76,261.84,115,263.06,114.88,263.14Z" style="fill:#263238"/><g style="opacity:.30000000000000004"><path d="M99.3,208.85c.06-.11.87.29,2.21,1.19a23.48,23.48,0,0,1,4.92,4.82,27.58,27.58,0,0,1,4.5,9.21,43.22,43.22,0,0,1,1.51,12.39,53,53,0,0,1-1.66,12.35,65.48,65.48,0,0,1-3.25,9.59c-2.27,5.29-4.19,8.29-4.39,8.18s1.21-3.34,3.13-8.68a66.59,66.59,0,0,0,4.25-21.46,45.55,45.55,0,0,0-1.3-11.91,28.43,28.43,0,0,0-3.9-8.88,29.47,29.47,0,0,0-4.28-5C99.88,209.56,99.22,209,99.3,208.85Z"/></g><g style="opacity:.30000000000000004"><path d="M94.51,207.37c.26.06-.27,3.42-1.27,8.81s-2.47,12.8-3.74,21c-.62,4.12-1.11,8.06-1.47,11.64-.16,1.8-.33,3.5-.42,5.1s-.2,3.09-.26,4.45c-.24,5.45-.19,8.84-.49,8.86s-.76-3.36-.87-8.88c0-1.37,0-2.89,0-4.51s.14-3.35.25-5.17c.27-3.63.71-7.62,1.33-11.77,1.28-8.31,3-15.72,4.31-21S94.25,207.32,94.51,207.37Z"/></g><g style="opacity:.30000000000000004"><path d="M89.73,207c0,.14-.9.5-2.54,1.25A37.53,37.53,0,0,0,80.64,212a33.35,33.35,0,0,0-13.31,20.15,34.37,34.37,0,0,0-.77,7,44.56,44.56,0,0,0,.49,6.56,68.78,68.78,0,0,0,2.69,10.93c1,3.06,1.92,5.52,2.52,7.23s.9,2.68.77,2.74-.64-.82-1.46-2.45-1.94-4-3.11-7.07a59.17,59.17,0,0,1-3.15-11.1,42.51,42.51,0,0,1-.63-6.85,35,35,0,0,1,.77-7.38,33.8,33.8,0,0,1,5.91-13,32.6,32.6,0,0,1,8.51-7.91,29.64,29.64,0,0,1,7-3.33C88.68,207,89.7,206.83,89.73,207Z"/></g><polygon points="62.03 274.78 68.46 317.04 105.82 317.04 114.49 275.39 62.03 274.78" style="fill:#3b82f6"/><path d="M109.26,301.87c0,.12-9.57.22-21.37.22s-21.39-.1-21.39-.22,9.58-.22,21.39-.22S109.26,301.75,109.26,301.87Z" style="fill:#fafafa"/><path d="M109.41,299.79c0,.12-9.64.22-21.52.22s-21.53-.1-21.53-.22,9.64-.22,21.53-.22S109.41,299.67,109.41,299.79Z" style="fill:#fafafa"/><path d="M109.34,297.44c0,.12-9.64.22-21.53.22s-21.52-.1-21.52-.22,9.63-.22,21.52-.22S109.34,297.32,109.34,297.44Z" style="fill:#fafafa"/><path d="M72.75,314.63a34.38,34.38,0,0,1-1.15-5.32,34,34,0,0,1-.71-5.39A34.38,34.38,0,0,1,72,309.24,34,34,0,0,1,72.75,314.63Z" style="fill:#fafafa"/><path d="M75.29,314.18a40.69,40.69,0,0,1-.46-5.19,41.12,41.12,0,0,1-.25-5.2,24.75,24.75,0,0,1,.69,5.17A25.25,25.25,0,0,1,75.29,314.18Z" style="fill:#fafafa"/><path d="M79.92,314.18a27,27,0,0,1-1-5.32,25.74,25.74,0,0,1-.28-5.41,48.81,48.81,0,0,1,.72,5.36A44.84,44.84,0,0,1,79.92,314.18Z" style="fill:#fafafa"/><path d="M83.17,314.4a44,44,0,0,1-.35-10.84A44.46,44.46,0,0,1,83.1,309,44.82,44.82,0,0,1,83.17,314.4Z" style="fill:#fafafa"/><path d="M88.93,314.18a29.79,29.79,0,0,1-.39-5.13,30.4,30.4,0,0,1,0-5.15,58.92,58.92,0,0,1,.35,10.28Z" style="fill:#fafafa"/><path d="M93.14,314.41A31.48,31.48,0,0,1,93,309.1a32.12,32.12,0,0,1,.26-5.31,32.7,32.7,0,0,1,.18,5.31A33.6,33.6,0,0,1,93.14,314.41Z" style="fill:#fafafa"/><path d="M97.08,313.84a71.58,71.58,0,0,1,1.07-11.06,71.58,71.58,0,0,1-1.07,11.06Z" style="fill:#fafafa"/><path d="M102.16,313.29a18.72,18.72,0,0,1,.63-4.72,19.09,19.09,0,0,1,1.39-4.56,42.1,42.1,0,0,1-1,4.65A43.25,43.25,0,0,1,102.16,313.29Z" style="fill:#fafafa"/><path d="M57.74,266.42v7.9a3.12,3.12,0,0,0,3.11,3.12H115a3.12,3.12,0,0,0,3.12-3.12v-7.9Z" style="fill:#3b82f6"/><g style="opacity:.4"><polygon points="62.43 277.44 62.88 279.95 112.8 283.51 114.06 277.44 62.43 277.44"/></g></g><g id="freepik--Floor--inject-3"><path d="M487.42,317.23c0,.15-104.63.26-233.65.26s-233.68-.11-233.68-.26,104.6-.26,233.68-.26S487.42,317.09,487.42,317.23Z" style="fill:#263238"/></g><g id="freepik--speech-bubble--inject-3"><path d="M391.6,42.77a46,46,0,0,0-36.45,73.5l-5.34,17.19L366.52,127a45.27,45.27,0,0,0,25.08,7.56,45.9,45.9,0,0,0,0-91.79Z" style="fill:#fafafa"/><path d="M391.71,42.77a6,6,0,0,1,.8,0l2.34.07c.51,0,1.09,0,1.72.07l2.06.29,2.41.35,2.69.67a43.54,43.54,0,0,1,13,5.68A45.75,45.75,0,0,1,438,90.79c-.07,1.07-.05,2.15-.21,3.22s-.32,2.16-.49,3.25A46.38,46.38,0,0,1,433,110.1a49.77,49.77,0,0,1-8.38,11.53,48.19,48.19,0,0,1-12.08,8.67,43.74,43.74,0,0,1-14.72,4.52,27,27,0,0,1-3.92.33,35,35,0,0,1-4,.08,46.52,46.52,0,0,1-23.78-7.67l.48,0-16.12,6.47-1,.38.27-1q2.44-8.86,4.74-17.23l.08.43A46.29,46.29,0,0,1,346,97a42.07,42.07,0,0,1-.63-10.08,32.26,32.26,0,0,1,.46-4.85c.12-.79.25-1.58.37-2.36s.38-1.52.56-2.28a46.1,46.1,0,0,1,18-26.22,43.61,43.61,0,0,1,10.7-5.64l2.41-.87,2.29-.58,2.09-.52c.67-.13,1.32-.2,1.93-.29,1.22-.15,2.29-.36,3.23-.41l2.37-.08,1.44,0a3.57,3.57,0,0,1,.49,0,1.68,1.68,0,0,1-.49.07l-1.44.12-2.35.15c-.93.08-2,.31-3.2.49a45.83,45.83,0,0,0-36.65,34c-.18.75-.41,1.48-.55,2.25s-.23,1.54-.34,2.31a31.2,31.2,0,0,0-.43,4.76,41,41,0,0,0,.65,9.89,45.34,45.34,0,0,0,8.49,19.26l.14.2-.06.23q-2.28,8.35-4.7,17.24l-.69-.6,16.12-6.49.25-.1.23.15a45.39,45.39,0,0,0,23.24,7.48,33.46,33.46,0,0,0,3.88-.07,27.25,27.25,0,0,0,3.84-.32,42.81,42.81,0,0,0,14.39-4.4,47.43,47.43,0,0,0,11.83-8.47,48.3,48.3,0,0,0,8.23-11.27,45.44,45.44,0,0,0,4.34-12.55c.16-1.07.33-2.13.49-3.19s.14-2.11.22-3.16a49,49,0,0,0-.1-6.19,45.55,45.55,0,0,0-20.59-34.18,43.77,43.77,0,0,0-12.83-5.78L401,43.89l-2.38-.39-2-.34c-.62-.07-1.2-.08-1.71-.12l-2.32-.17A4.57,4.57,0,0,1,391.71,42.77Z" style="fill:#263238"/><path d="M374.35,82.57c1-4.28,5-7.95,9.38-7.52a9.59,9.59,0,0,1,6.46,3.9,17.47,17.47,0,0,1,1.52,2.2,18.35,18.35,0,0,1,1.51-2.21,9.65,9.65,0,0,1,6.46-3.9c4.36-.43,8.42,3.24,9.39,7.51s-.64,8.8-3.27,12.29a24.69,24.69,0,0,1-14.44,9.69c-4.89-1.13-11.09-6.18-13.72-9.67S373.39,86.84,374.35,82.57Z" style="fill:#3b82f6"/><path d="M375.16,90.49h.14l.42,0,1.63,0,6,0-.1-.08,1.83,6.68.11.4.14-.39,3.5-10.07c.39-1.11.77-2.21,1.14-3.28l-.26,0,3.91,6.66,0,.07h.07l10.52-.06,3,0,.79,0a1.39,1.39,0,0,0,.27,0,1.39,1.39,0,0,0-.27,0l-.79,0-3,0-10.52-.05.11.06-3.88-6.68-.16-.26-.1.29c-.37,1.07-.75,2.17-1.14,3.28-1.24,3.6-2.42,7-3.48,10.07h.25c-.7-2.48-1.34-4.74-1.88-6.67l0-.07h-.08l-6,.05-1.63,0h-.42Z" style="fill:#fafafa"/></g><g id="freepik--Apple--inject-3"><path d="M398.94,355.2a11.24,11.24,0,0,0-9.48-12.85,1.13,1.13,0,0,0-.81.09,1.18,1.18,0,0,0-.3,1.09,13.61,13.61,0,0,0,10.58,12" style="fill:#455a64"/><path d="M383.17,376c2.84,5.85,6.92,9.79,12,10,1,0,1.77-.63,2.74-.69a6.73,6.73,0,0,1,1.61.61,2.35,2.35,0,0,0,.85.19c5.22-.28,9.67-3.95,12.67-10.09,4.17-8.61,2.88-17.85-2.88-20.66a14.67,14.67,0,0,0-2.36-.92,9.67,9.67,0,0,0-2.86-.34,21.46,21.46,0,0,0-6.55,1.49l-.28.1c-4.68-2.07-8.42-2.08-12-.33C380.28,358.12,379,367.36,383.17,376Z" style="fill:#3b82f6"/><path d="M383.28,367.25a4.15,4.15,0,0,1-.48-1.73,9.16,9.16,0,0,1,.51-4.3,9.34,9.34,0,0,1,2.41-3.61,4.55,4.55,0,0,1,1.49-1c0,.06-.54.43-1.29,1.21a10,10,0,0,0-2.23,3.54,10.14,10.14,0,0,0-.61,4.13C383.15,366.58,383.34,367.23,383.28,367.25Z" style="fill:#fafafa"/><path d="M384.33,371.34c-.1,0-.29-.38-.41-.91s-.13-1,0-1,.3.38.42.9S384.44,371.32,384.33,371.34Z" style="fill:#fafafa"/><path d="M410.85,341.13c0,.07-1.08.48-2.7,1.45a20.46,20.46,0,0,0-2.7,1.93,23.57,23.57,0,0,0-2.85,2.88,22.74,22.74,0,0,0-2.26,3.36,19.93,19.93,0,0,0-1.35,3c-.64,1.78-.82,3-.9,2.94a3.39,3.39,0,0,1,.09-.83c0-.27.1-.59.19-1s.19-.79.35-1.24a19.16,19.16,0,0,1,1.29-3.11,20.36,20.36,0,0,1,5.2-6.36,19,19,0,0,1,2.8-1.88c.41-.25.81-.42,1.15-.59a9.15,9.15,0,0,1,.9-.37A2.85,2.85,0,0,1,410.85,341.13Z" style="fill:#263238"/></g><g id="freepik--Character--inject-3"><path d="M246.24,413c7.51.58,15.41.16,21.29,2.54,3,1.22,5.42,2.38,6.44,6.38.88,3.46-1.88,9.23-4.45,11.75-7.49,7.38-10.4,10.83-12.47,19.05s-5,17-12.58,21.5a10.11,10.11,0,0,1-5.67,1.65,5.64,5.64,0,0,1-4.93-3.07c-.81-2,.3-4.1,1.31-5.93,3.06-5.48,5.62-11.31,6.39-17.55s0-8.52-3.89-14c-4.42-5.28-11.88-9.5-20.19-13.42l17-9.75Z" style="fill:#ffbe9d"/><path d="M238.41,343.4s-8.4,1.61-11.77.78c-26.53-6.52-83-36-104.21-23.13-18.86,11.44-14,30-2,45.62,11.77,15.39,86.76,54.3,86.76,54.3l25.15-20.6L222.61,396l3.54-.54a60.15,60.15,0,0,0,19.49-.55l31.75-6.18v-33Z" style="fill:#263238"/><path d="M343.69,353.27s11.84,12.52,13.76,34.65c.65,7.5-3.29,21.34-9.71,26.81a58.64,58.64,0,0,1-42.45,13.54l-71-3.5-2-26.73s28.91-10.81,37-12.32l8.05-1v-29l35.39,1.92C324,358.23,343.69,353.27,343.69,353.27Z" style="fill:#263238"/><path d="M314.11,370.35a10.09,10.09,0,0,1-1.58.35c-1,.18-2.5.48-4.31.88a101.1,101.1,0,0,0-27.09,10.19c-1.63.89-2.93,1.64-3.83,2.17a9.4,9.4,0,0,1-1.42.78,9.24,9.24,0,0,1,1.32-1c.86-.59,2.14-1.39,3.75-2.33a89.59,89.59,0,0,1,27.19-10.22c1.83-.35,3.32-.6,4.36-.72A9.09,9.09,0,0,1,314.11,370.35Z" style="fill:#455a64"/><path d="M345.72,413.2a13.74,13.74,0,0,0,1.4-1.08,8.74,8.74,0,0,0,2.34-4.09,21.43,21.43,0,0,0,.35-7.09,80.47,80.47,0,0,0-.93-8.74,33.15,33.15,0,0,0-2.5-8.36,22.73,22.73,0,0,0-3.94-5.92,20.44,20.44,0,0,0-5.23-4,1.89,1.89,0,0,1,.44.16,9.72,9.72,0,0,1,1.2.57,16.53,16.53,0,0,1,3.86,3,22.54,22.54,0,0,1,4.1,6,32.64,32.64,0,0,1,2.58,8.48,74.86,74.86,0,0,1,.9,8.8,21.26,21.26,0,0,1-.47,7.22,8.64,8.64,0,0,1-2.56,4.14,6,6,0,0,1-1.11.75A1.48,1.48,0,0,1,345.72,413.2Z" style="fill:#455a64"/><path d="M232,398.34a5.5,5.5,0,0,1,.74-.33l2.17-.85c1.88-.74,4.63-1.74,8-3s7.49-2.58,12.08-3.94,9.65-2.78,15.05-4A127,127,0,0,1,298.18,383l2.58,0,2.3.12c1.44.07,2.67.15,3.68.28l2.31.27a5.33,5.33,0,0,1,.8.12,4.51,4.51,0,0,1-.81,0l-2.32-.17c-1-.1-2.24-.15-3.67-.19l-2.3-.08-2.57,0a133.79,133.79,0,0,0-27.95,3.43c-5.38,1.17-10.45,2.54-15,3.91s-8.66,2.69-12.09,3.83l-8.09,2.8-2.2.76A4.36,4.36,0,0,1,232,398.34Z" style="fill:#455a64"/><path d="M221.58,399.67a1.57,1.57,0,0,1-.17-.22c-.11-.18-.26-.4-.44-.68l-1.67-2.61-1.19-1.89c-.45-.69-1-1.41-1.5-2.2-1.1-1.57-2.28-3.4-3.75-5.3-.73-1-1.48-2-2.27-3s-1.68-2.09-2.56-3.19c-1.74-2.23-3.78-4.46-5.88-6.84a175.72,175.72,0,0,0-14.87-14.36A176.25,176.25,0,0,0,170.7,347c-2.69-1.68-5.23-3.33-7.71-4.69-1.23-.69-2.4-1.4-3.56-2l-3.35-1.74c-2.11-1.15-4.11-2-5.83-2.84-.87-.4-1.67-.8-2.42-1.13l-2.06-.87-2.85-1.22-.74-.33-.24-.13.26.08.76.28c.7.28,1.66.66,2.89,1.13l2.08.83c.76.32,1.56.7,2.44,1.09,1.73.8,3.75,1.65,5.88,2.78l3.37,1.71c1.17.6,2.35,1.31,3.59,2,2.49,1.35,5,3,7.75,4.67A170.71,170.71,0,0,1,187.62,359a170.26,170.26,0,0,1,14.88,14.42c2.1,2.4,4.13,4.65,5.87,6.9.87,1.11,1.76,2.16,2.54,3.21l2.24,3.05c1.46,1.92,2.62,3.77,3.7,5.35.52.8,1,1.54,1.47,2.23l1.15,1.92c.68,1.13,1.21,2,1.59,2.67.16.29.29.52.4.7S221.59,399.66,221.58,399.67Z" style="fill:#455a64"/><path d="M185.37,358.58a8.08,8.08,0,0,1-.82-1.23c-.5-.82-1.23-2-2.15-3.41a111.1,111.1,0,0,0-7.86-10.71,114.54,114.54,0,0,0-9.09-9.69c-1.24-1.16-2.25-2.1-3-2.73a9.48,9.48,0,0,1-1.07-1,7.42,7.42,0,0,1,1.2.88c.75.58,1.81,1.48,3.08,2.61a93.5,93.5,0,0,1,9.24,9.62,92.5,92.5,0,0,1,7.77,10.85c.89,1.46,1.57,2.66,2,3.51A8.39,8.39,0,0,1,185.37,358.58Z" style="fill:#455a64"/><path d="M132.23,348c-.13.1-2.25-2.88-5.51-5.92s-6.35-5-6.26-5.13a8.66,8.66,0,0,1,2.09,1.16,34.59,34.59,0,0,1,4.52,3.59,33.46,33.46,0,0,1,3.87,4.29A9,9,0,0,1,132.23,348Z" style="fill:#263238"/><polygon points="232.37 398.34 189.64 403.18 192.07 425.11 241.3 425.11 232.37 398.34" style="fill:#ffbe9d"/><path d="M204.21,425c-6.54.19-19.13,5.9-23.56,10.16s-7.51,9.7-10,15.31c-.83,1.87-1.82,4-3.87,4.52a5.54,5.54,0,0,1-5.31-2.07,10,10,0,0,1-2-5.42c-.92-8.59,4.25-16,9.48-22.48s6.58-9.23,8-19.44c.48-3.49,3.38-9.05,6.61-10.39,3.74-1.55,6.05-.35,8.79,1.3l9.62,5.49" style="fill:#ffbe9d"/><path d="M241.3,425.11a5.5,5.5,0,0,1-1.21.06h-3.28c-2.77,0-6.6.1-10.82.19s-8.07.11-10.85,0c-1.38,0-2.51-.09-3.28-.15a5.44,5.44,0,0,1-1.2-.14,4.81,4.81,0,0,1,1.21-.06l3.28,0c2.77,0,6.59-.09,10.83-.18s8.06-.11,10.83,0c1.39,0,2.51.09,3.29.15A4.77,4.77,0,0,1,241.3,425.11Z" style="fill:#eb996e"/><path d="M223.19,358.3a7.57,7.57,0,0,1,.81,1.24,15.13,15.13,0,0,1,.85,1.53c.3.6.67,1.28,1,2.08s.7,1.65,1,2.61.63,2,.93,3.07a39.56,39.56,0,0,1,1,14.64c-.17,1.12-.3,2.19-.53,3.17s-.43,1.9-.67,2.72-.49,1.56-.71,2.2a14,14,0,0,1-.64,1.62,8.35,8.35,0,0,1-.64,1.34,7.87,7.87,0,0,1,.46-1.41c.16-.45.36-1,.54-1.64s.45-1.37.64-2.2.43-1.73.59-2.71.33-2,.48-3.14a41.61,41.61,0,0,0-.95-14.47c-.29-1.08-.55-2.11-.88-3.05s-.64-1.82-.95-2.61-.64-1.48-.92-2.1-.53-1.13-.75-1.55A8.53,8.53,0,0,1,223.19,358.3Z" style="fill:#455a64"/><path d="M242.66,376.15a7.5,7.5,0,0,1-.19-1.43c0-.46-.09-1-.19-1.68s-.17-1.39-.34-2.2a44.44,44.44,0,0,0-1.38-5.61,47.93,47.93,0,0,0-2.68-6.55,46.78,46.78,0,0,0-3.69-6,44.4,44.4,0,0,0-3.71-4.44c-.55-.62-1.11-1.12-1.57-1.58s-.89-.84-1.24-1.14a7.28,7.28,0,0,1-1-1,9,9,0,0,1,1.17.85,12.69,12.69,0,0,1,1.3,1.08c.49.44,1.07.93,1.64,1.53a39.26,39.26,0,0,1,3.83,4.41A41.41,41.41,0,0,1,241,365.09a40.9,40.9,0,0,1,1.29,5.69c.15.82.19,1.58.26,2.23a13.94,13.94,0,0,1,.1,1.69A8.19,8.19,0,0,1,242.66,376.15Z" style="fill:#455a64"/><path d="M348.89,397.9a1.92,1.92,0,0,1-.11.28l-.37.81a25,25,0,0,1-1.64,3,31.54,31.54,0,0,1-3.27,4.26,37.41,37.41,0,0,1-5.31,4.72,47.21,47.21,0,0,1-16.77,7.61c-6.78,1.71-14.47,2.27-22.48,2.37-16.05,0-30.56-.06-41.06-.11l-12.45-.1-3.38-.06-.88,0a1.16,1.16,0,0,1-.3,0l.3,0,.88,0,3.38,0,12.45-.07,41.05,0c8-.1,15.65-.64,22.37-2.31A47.37,47.37,0,0,0,338,410.63a37.24,37.24,0,0,0,5.32-4.62,32.25,32.25,0,0,0,3.31-4.17,27.65,27.65,0,0,0,1.72-2.9l.41-.78A1.94,1.94,0,0,1,348.89,397.9Z" style="fill:#3b82f6"/><path d="M354.84,378.42a49.53,49.53,0,0,1-2.13,6.74,48.1,48.1,0,0,1-2.62,6.58,49.4,49.4,0,0,1,2.13-6.75A47,47,0,0,1,354.84,378.42Z" style="fill:#3b82f6"/><path d="M179.35,399.19l-.23-.08-.69-.29-2.6-1.14c-2.25-1-5.5-2.47-9.48-4.38s-8.68-4.28-13.73-7.22A112.35,112.35,0,0,1,137,375.26a90.53,90.53,0,0,1-21.57-26.72A81.88,81.88,0,0,1,111.1,339c-.47-1.14-.74-2.06-1-2.67l-.23-.7c0-.16-.07-.25-.07-.25a.82.82,0,0,1,.12.23c.07.18.16.4.28.68.25.6.56,1.51,1,2.64a95.27,95.27,0,0,0,4.48,9.41,92.4,92.4,0,0,0,21.59,26.5,115.08,115.08,0,0,0,15.51,10.81c5,2.95,9.7,5.35,13.65,7.3s7.18,3.47,9.41,4.53l2.56,1.23.66.33C179.28,399.14,179.36,399.18,179.35,399.19Z" style="fill:#3b82f6"/><path d="M252.05,106.79A7.84,7.84,0,0,0,238,108a13.7,13.7,0,0,1-1.36,3.46c-2,2.71-7,1.92-8.58,4.89-1.71,3.16,2.24,6.94,1.28,10.4-.77,2.77-4.32,4-5.13,6.77-1.08,3.65,3.32,7.26,2.26,10.92-.9,3.15-5.34,4.31-6,7.51-.77,3.53,3.58,6.4,3.51,10-.09,4.62-7.15,7.17-6.5,11.75.35,2.53,3.05,4.22,3.5,6.74.85,4.73-6.48,8-5.61,12.75.42,2.22,2.52,3.65,4.34,5s3.69,3.27,3.32,5.51-2.95,3.55-4.35,5.46c-2.16,2.93,1.27,10.54,4.6,12l13.84-10.34s-4-3.31-.85-6.35,1.09-4.4,1-6.7c0,0,3.09,2.6,2,5.31a6.73,6.73,0,0,0,.72,6.46L261,200.1l2.27-20Z" style="fill:#263238"/><path d="M221.25,200.07a5.58,5.58,0,0,1-1.35.05,8.43,8.43,0,0,1-7.52-5.76,8.86,8.86,0,0,1-.39-3.82,12,12,0,0,1,1.42-4c.69-1.34,1.55-2.66,2.2-4.13a8.51,8.51,0,0,0,.81-4.81c-.3-1.69-1.59-3.05-2.61-4.64a4.64,4.64,0,0,1-.91-2.79,3.41,3.41,0,0,1,1.56-2.59,20.82,20.82,0,0,1,2.65-1.46,5,5,0,0,0,2.19-1.87,3.65,3.65,0,0,0,.21-2.85,9.33,9.33,0,0,0-1.38-2.77c-.6-.86-1.31-1.7-1.9-2.64a7.43,7.43,0,0,1-1.25-3.16,4.64,4.64,0,0,1,1-3.3,13.68,13.68,0,0,1,2.61-2.27,17.44,17.44,0,0,0,2.59-2.1,4.28,4.28,0,0,0,1.26-2.82,6.84,6.84,0,0,0-.88-3c-.5-1-1.08-1.88-1.55-2.87a5.93,5.93,0,0,1-.72-3.21,4.35,4.35,0,0,1,.49-1.58,7.07,7.07,0,0,1,1-1.29c1.47-1.5,3.35-2.52,4.14-4.26a4.91,4.91,0,0,0,.34-2.73,14.78,14.78,0,0,0-.7-2.71,12.09,12.09,0,0,1-1-5.4,4.12,4.12,0,0,1,1.14-2.42,5.05,5.05,0,0,1,2.22-1.28c1.6-.48,3.18-.54,4.61-.89a5.22,5.22,0,0,0,3.43-2.1c.74-1.09,1.14-2.33,1.86-3.31a7.56,7.56,0,0,1,5.19-3,7.43,7.43,0,0,1,3.82.45,4.75,4.75,0,0,1,.89.45,1.39,1.39,0,0,1,.29.2s-.4-.25-1.22-.56a7.65,7.65,0,0,0-3.75-.34,7.41,7.41,0,0,0-5,3c-.68,1-1.06,2.18-1.82,3.33a5.6,5.6,0,0,1-3.62,2.28c-1.47.36-3.06.44-4.58.91a4.73,4.73,0,0,0-2,1.19,3.69,3.69,0,0,0-1,2.19,11.6,11.6,0,0,0,1,5.19,14.82,14.82,0,0,1,.72,2.79,5.37,5.37,0,0,1-.36,3c-.9,1.94-2.84,3-4.22,4.4a6.42,6.42,0,0,0-.9,1.19,3.8,3.8,0,0,0-.43,1.4,5.45,5.45,0,0,0,.68,2.93c.45.95,1,1.87,1.54,2.85a7.23,7.23,0,0,1,.95,3.26,4.82,4.82,0,0,1-1.4,3.17,17.24,17.24,0,0,1-2.67,2.17,13.5,13.5,0,0,0-2.5,2.17,4.05,4.05,0,0,0-.93,2.93,6.82,6.82,0,0,0,1.16,2.93c.57.91,1.26,1.73,1.89,2.63a10,10,0,0,1,1.45,2.93,4.15,4.15,0,0,1-.26,3.22,5.53,5.53,0,0,1-2.4,2.06,22.09,22.09,0,0,0-2.6,1.42,2.92,2.92,0,0,0-1.37,2.23,4.29,4.29,0,0,0,.83,2.52c1,1.54,2.32,2.94,2.64,4.8a8.75,8.75,0,0,1-.86,5.05c-.68,1.52-1.55,2.83-2.24,4.14a11.68,11.68,0,0,0-1.42,3.93,8.45,8.45,0,0,0,.34,3.68,8.21,8.21,0,0,0,3.66,4.58,8.75,8.75,0,0,0,3.59,1.17C220.78,200.1,221.24,200,221.25,200.07Z" style="fill:#263238"/><path d="M221.89,215.22a1,1,0,0,1-.28-.2,1.49,1.49,0,0,1-.44-.92,2.57,2.57,0,0,1,.38-1.61,3.14,3.14,0,0,1,1.81-1.35,24.16,24.16,0,0,1,2.74-.64,4,4,0,0,0,2.64-1.7,2,2,0,0,0,.1-1.68,7.82,7.82,0,0,0-1-1.65,4.16,4.16,0,0,1-.87-2,3.76,3.76,0,0,1,.55-2.21c.37-.68.82-1.31,1.22-2a4.06,4.06,0,0,0,.71-2.16,3.22,3.22,0,0,0-1-2.09c-.56-.62-1.25-1.17-1.85-1.86a3,3,0,0,1-.93-2.63,2.27,2.27,0,0,1,.69-1.32,4.52,4.52,0,0,1,1.2-.85c.87-.44,1.79-.74,2.67-1.13a5.25,5.25,0,0,0,2.27-1.61,3.28,3.28,0,0,0,.41-2.71,18.46,18.46,0,0,0-1.07-2.86,11.64,11.64,0,0,1-1-3.08,6.19,6.19,0,0,1,.54-3.28c.86-2,2.34-3.79,2.8-5.92a5,5,0,0,0-.42-3.14,32.87,32.87,0,0,0-1.7-2.95,7.23,7.23,0,0,1-1.19-3.32,5.08,5.08,0,0,1,1.18-3.29c.69-.93,1.49-1.7,2.18-2.55a5.4,5.4,0,0,0,1.38-2.77,4.91,4.91,0,0,0-.74-2.93c-.49-.92-1.11-1.78-1.63-2.71a6,6,0,0,1-.9-3.07,6.13,6.13,0,0,1,1.06-2.93c.53-.86,1.11-1.66,1.52-2.51a3.9,3.9,0,0,0,.4-2.64c-.39-1.77-1.78-3.19-2.12-5.06a3.55,3.55,0,0,1,.59-2.64,11.66,11.66,0,0,1,1.72-1.9,9.09,9.09,0,0,0,1.53-1.79,4.62,4.62,0,0,0,.57-2.13c.06-1.48-.27-2.91-.19-4.3a7.93,7.93,0,0,1,1.18-3.7,7.63,7.63,0,0,1,4.94-3.55,8,8,0,0,1,3.88.11,5.38,5.38,0,0,1,1.26.52s-.43-.2-1.28-.42a8.14,8.14,0,0,0-3.82,0,7.44,7.44,0,0,0-4.73,3.5,7.69,7.69,0,0,0-1.1,3.56c-.07,1.34.27,2.75.23,4.3a4.84,4.84,0,0,1-.61,2.31,9.17,9.17,0,0,1-1.58,1.89,11,11,0,0,0-1.65,1.84,3.07,3.07,0,0,0-.51,2.34c.29,1.68,1.68,3.09,2.14,5a4.43,4.43,0,0,1-.42,2.94c-.44.9-1,1.71-1.54,2.55a5.64,5.64,0,0,0-1,2.7,5.45,5.45,0,0,0,.85,2.81c.49.89,1.12,1.75,1.64,2.71a5.43,5.43,0,0,1,.8,3.23,5.94,5.94,0,0,1-1.49,3c-.71.87-1.51,1.65-2.16,2.53a4.54,4.54,0,0,0-1.08,3,6.67,6.67,0,0,0,1.12,3.07,30.33,30.33,0,0,1,1.72,3,5.59,5.59,0,0,1,.46,3.46c-.51,2.32-2,4.07-2.84,6a5.7,5.7,0,0,0-.51,3,11.65,11.65,0,0,0,.92,2.94,17.94,17.94,0,0,1,1.08,3,3.71,3.71,0,0,1-.49,3.09,5.65,5.65,0,0,1-2.48,1.77c-.9.39-1.81.7-2.64,1.11a2.7,2.7,0,0,0-1.67,1.84,2.65,2.65,0,0,0,.82,2.27c.57.65,1.25,1.2,1.84,1.86a3.7,3.7,0,0,1,1.1,2.36,4.53,4.53,0,0,1-.79,2.37c-.41.69-.87,1.31-1.23,2a3.44,3.44,0,0,0-.52,2,3.85,3.85,0,0,0,.79,1.82,7.82,7.82,0,0,1,1,1.74,2.29,2.29,0,0,1-.14,1.92,4.31,4.31,0,0,1-2.84,1.8c-1,.23-1.95.32-2.74.59a3,3,0,0,0-1.74,1.24,2.47,2.47,0,0,0-.4,1.52A1.57,1.57,0,0,0,221.89,215.22Z" style="fill:#455a64"/><path d="M345.23,353.27l-17.41-58,5.43-92c-11.08-6-24.24-10.82-43-11.57l-30,2.26-33.09,16.53,7,55.62,11.24,48-6.93,29.35C266.73,363.76,304.36,366,345.23,353.27Z" style="fill:#3b82f6"/><path d="M319,256.91s33.86,1.74,33.86-1.06c0-5.73-1.78-22-6.62-34.66-3.67-9.58-10-16.64-13.4-18.08C325,199.74,319,256.91,319,256.91Z" style="fill:#3b82f6"/><path d="M227.59,210.16s-6.39,5.31-13.12,21.27c-8,18.93-10.29,22.83-10.29,22.83l20.07,27.14,10.9-12.22Z" style="fill:#3b82f6"/><path d="M245.34,314.05s0-.07-.08-.22-.11-.39-.18-.66c-.16-.62-.37-1.48-.64-2.55-.55-2.22-1.31-5.44-2.22-9.42-1.82-8-4.22-19-6.8-31.18l-6.61-31.23c-.85-3.95-1.55-7.17-2-9.45-.22-1.09-.4-1.94-.53-2.58-.05-.27-.09-.49-.13-.67l0-.23a.61.61,0,0,1,.08.22c.05.18.11.39.18.66q.24.94.63,2.55c.54,2.22,1.29,5.44,2.2,9.43,1.81,8,4.19,19,6.76,31.19s4.94,23.18,6.65,31.21c.86,4,1.56,7.18,2.06,9.46.23,1.08.41,1.94.54,2.57l.13.67A.67.67,0,0,1,245.34,314.05Z" style="fill:#263238"/><g style="opacity:.30000000000000004"><path d="M324.14,198.73a21.83,21.83,0,0,0-27.81,4.73l-.46-3.4c-.28,3.68-3.24,7.83-2.83,10.23s2.38,4.63,4.81,4.73c3.44.14,6.59-3.71,9.78-2.42,1.06.42,1.84,1.36,2.88,1.84,2.33,1.08,5-.42,7.06-1.91q3.6-2.55,7.07-5.29c1.29-1,2.67-2.23,2.81-3.87C327.62,201.37,325.87,199.75,324.14,198.73Z"/></g><path d="M328.86,205a23.9,23.9,0,0,0-5.62,5,25.75,25.75,0,0,0-3.86,7.19,84.66,84.66,0,0,0-2.73,9.71,59.91,59.91,0,0,0-1.33,10c-.19,3.1-.25,5.9-.35,8.25s-.19,4.25-.31,5.57c-.05.65-.12,1.16-.16,1.51a1.88,1.88,0,0,1-.09.52,2,2,0,0,1,0-.53c0-.41,0-.91.06-1.52.05-1.31.1-3.21.15-5.56s.07-5.16.23-8.27a57.18,57.18,0,0,1,1.31-10.07,81.2,81.2,0,0,1,2.78-9.76,25.62,25.62,0,0,1,4-7.25,19.23,19.23,0,0,1,4.12-3.78c.55-.37,1-.6,1.31-.78A1.58,1.58,0,0,1,328.86,205Z" style="fill:#263238"/><path d="M300.44,334.06a3,3,0,0,1-.5-.06l-1.43-.26c-1.24-.23-3-.62-5.22-1.15a167.78,167.78,0,0,1-16.89-5,170.79,170.79,0,0,1-16.29-6.73c-2-1-3.66-1.8-4.77-2.39l-1.28-.7a2,2,0,0,1-.43-.27,1.5,1.5,0,0,1,.48.18l1.32.6c1.13.55,2.79,1.32,4.84,2.24,4.1,1.86,9.83,4.28,16.3,6.58s12.45,4,16.81,5.15c2.18.56,3.95,1,5.17,1.3l1.41.36A1.5,1.5,0,0,1,300.44,334.06Z" style="fill:#263238"/><path d="M302.79,322.66a2.75,2.75,0,0,1-.52.07l-1.49.12c-1.3.09-3.18.17-5.5.21a145.62,145.62,0,0,1-36-3.93c-2.26-.54-4.08-1-5.33-1.39l-1.43-.44a2,2,0,0,1-.49-.18,1.83,1.83,0,0,1,.52.08l1.46.34c1.25.31,3.08.74,5.35,1.23a167.85,167.85,0,0,0,35.94,3.92c2.32,0,4.19,0,5.49-.05h1.5A1.76,1.76,0,0,1,302.79,322.66Z" style="fill:#263238"/><g style="opacity:.30000000000000004"><path d="M332.12,313.55c-1.8-2.94-5.32-4.24-8.55-5.46A144.82,144.82,0,0,1,276.3,278.8c-6.53-6.07-12.74-12.91-20.94-16.42s-19.25-2.46-24.07,5.05l3,2c15.12,5,25.16,18.9,36.07,30.51,8.2,8.72,17.35,16.5,26.48,24.25,5.86,5,12.41,10.22,20.1,10.22a17,17,0,0,0,16.23-13.92A10.33,10.33,0,0,0,332.12,313.55Z"/></g><path d="M178.42,167.73h-2.61a5.7,5.7,0,0,0-5.16,3.28h0a5.68,5.68,0,0,0,.38,5.53l4,6.25s-4,2.18-2.88,6.54c0,0-2.64,1.61-1.26,7,0,0-1.75,4.52.38,7.66s8.91,15.17,8.91,15.17v13.3l18-2.08V215a22.17,22.17,0,0,0,2.66-6.89c.76-3.89-2.13-18.8-2.13-18.8l-8.28-9.55-9.28-3.64a4.69,4.69,0,0,0-.59,3.34,4.31,4.31,0,0,0,.21.67l-1.38-.63-3.1-5.64v-.75s7.63-1.71,4.71-4.42A4,4,0,0,0,178.42,167.73Z" style="fill:#ffbe9d"/><path d="M189.79,203.26s.25.22.44.76a4.17,4.17,0,0,1,.12,2.41,2,2,0,0,1-1.12,1.32,2.88,2.88,0,0,1-2,.09c-1.41-.43-2.31-1.77-3.23-2.92a6.56,6.56,0,0,0-1.54-1.45,3,3,0,0,0-1.83-.46l-3.48.21a19.91,19.91,0,0,1-3.22.07,19.83,19.83,0,0,1,3.19-.43c1-.1,2.16-.22,3.49-.33a3.47,3.47,0,0,1,2.12.5,6.73,6.73,0,0,1,1.67,1.57c.94,1.19,1.79,2.41,3,2.78a2.54,2.54,0,0,0,1.68,0,1.64,1.64,0,0,0,.94-1,4.37,4.37,0,0,0,0-2.24C189.91,203.55,189.75,203.28,189.79,203.26Z" style="fill:#eb996e"/><path d="M183.09,181.92c0,.06-.4,0-.92-.3a3.84,3.84,0,0,1-1.8-4.1c.13-.6.35-.91.41-.88a7.08,7.08,0,0,0,.31,3A7,7,0,0,0,183.09,181.92Z" style="fill:#263238"/><path d="M181.54,202.65c.06,0,.1.42-.06,1.08a5.7,5.7,0,0,1-1.2,2.31,5.82,5.82,0,0,1-2.1,1.55c-.62.26-1,.29-1.06.23a8.39,8.39,0,0,0,4.42-5.17Z" style="fill:#eb996e"/><path d="M192.63,213.11a13.27,13.27,0,0,0-3.5-3.16,12.9,12.9,0,0,0-4.55-1.23,2.76,2.76,0,0,1,1.44-.18,7.93,7.93,0,0,1,6,3.27A2.88,2.88,0,0,1,192.63,213.11Z" style="fill:#eb996e"/><path d="M192.77,203.43a13,13,0,0,1,1.46,4,14.29,14.29,0,0,1,.26,4.16c-.37,2.26-1.41,8.68.06,10.19s11.37,9.63,11.37,9.63h6.23s-12.65-7.81-14.35-13.06-.06-8.06-.92-11.33a88,88,0,0,0-4.25-10.54l-14.46-23.79-2.39.56Z" style="fill:#e0e0e0"/><path d="M192.77,203.43s-.13-.18-.34-.54-.54-.91-.93-1.58L188,195.23l-12.42-21.85-.15-.26.29-.07,2.38-.56.16,0,.09.14,14.49,23.78h0c1.19,2.55,2.4,5.26,3.46,8.09a13.94,13.94,0,0,1,1.08,4.46c0,1.54-.17,3-.15,4.46a15.54,15.54,0,0,0,.61,4.25,9.33,9.33,0,0,0,2,3.61,41.26,41.26,0,0,0,6,5.53c2.12,1.62,4.25,3.11,6.36,4.44l.68.43h-7.11l-.06-.05c-3.92-3.25-7.51-6.21-10.59-8.95a5,5,0,0,1-1.07-1.16,4.67,4.67,0,0,1-.4-1.47,15.53,15.53,0,0,1-.05-2.8,47.77,47.77,0,0,1,.57-4.87,10.6,10.6,0,0,0,0-3.88,14.59,14.59,0,0,0-.6-2.82A13.12,13.12,0,0,0,193,204a5.74,5.74,0,0,1-.26-.56,9.56,9.56,0,0,1,1,2.18,15,15,0,0,1,.67,2.83,11.11,11.11,0,0,1,0,3.95c-.21,1.46-.43,3.07-.52,4.84a16,16,0,0,0,.08,2.75,4.18,4.18,0,0,0,.38,1.35,4.61,4.61,0,0,0,1,1c3.1,2.71,6.71,5.66,10.64,8.88l-.14,0h6.23l-.12.43q-3.21-2-6.42-4.46a41.06,41.06,0,0,1-6.13-5.59,9.8,9.8,0,0,1-2.12-3.8,16.38,16.38,0,0,1-.63-4.38c0-1.49.19-3,.15-4.44a13.09,13.09,0,0,0-1-4.3c-1.05-2.8-2.26-5.51-3.44-8l0,0L178,172.83l.25.1-2.39.55.14-.32,12.26,22,3.38,6.13.88,1.62C192.68,203.23,192.77,203.43,192.77,203.43Z" style="fill:#263238"/><path d="M174.63,183.62a7.67,7.67,0,0,1,6.49-2.34,12.76,12.76,0,0,1,6.49,2.81,40.38,40.38,0,0,1,5.1,5,8.6,8.6,0,0,1,2.39,3.81c.3,1.49-.51,3.32-2,3.55s-2.66-1-3.67-2.12a24.54,24.54,0,0,0-4.64-3.86,8.32,8.32,0,0,0-3.41-1.45,10.1,10.1,0,0,0-4.44.79" style="fill:#ffbe9d"/><path d="M176.93,189.84a2.71,2.71,0,0,1,.46-.21,14.13,14.13,0,0,1,1.37-.46,7.73,7.73,0,0,1,2.28-.3,6.78,6.78,0,0,1,2.92.92,25.05,25.05,0,0,1,6.13,4.92,6.42,6.42,0,0,0,1.72,1.32,2,2,0,0,0,2-.11,2.78,2.78,0,0,0,1.06-1.9,3.84,3.84,0,0,0-.48-2.27,23.06,23.06,0,0,0-3.08-3.8,35.36,35.36,0,0,0-3.28-3.22,13.11,13.11,0,0,0-6.86-3.26,8.21,8.21,0,0,0-5,1,13.59,13.59,0,0,0-1.53,1.15,1.88,1.88,0,0,1,.31-.4,6.07,6.07,0,0,1,1.12-.92,8.14,8.14,0,0,1,5.14-1.2,13.39,13.39,0,0,1,7.14,3.26,35.05,35.05,0,0,1,3.34,3.25,22.54,22.54,0,0,1,3.17,3.9,4.21,4.21,0,0,1,.53,2.58,3.27,3.27,0,0,1-1.28,2.25,2.49,2.49,0,0,1-2.5.14,6.63,6.63,0,0,1-1.85-1.43,25.94,25.94,0,0,0-6-4.94,6.56,6.56,0,0,0-2.75-1,7.71,7.71,0,0,0-2.22.21C177.6,189.66,177,189.89,176.93,189.84Z" style="fill:#eb996e"/><path d="M174.16,195.73c3.17.76,6.75,0,9.54,1.67a12.16,12.16,0,0,1,2.47,2.12l4.37,4.51c.8.83,1.9,1.73,3,1.2a1.77,1.77,0,0,0,.92-1.33,4.49,4.49,0,0,0-.75-2.83,60.56,60.56,0,0,0-3.42-5.59,17.13,17.13,0,0,0-2.15-2.57,14.12,14.12,0,0,0-4.41-3.18c-2.26-.7-3.94-1-6.21,0" style="fill:#ffbe9d"/><path d="M177.51,189.73a1.84,1.84,0,0,1,.44-.24,5.89,5.89,0,0,1,1.38-.44,9.44,9.44,0,0,1,5.23.84,14.66,14.66,0,0,1,3,2.17,16.57,16.57,0,0,1,2.83,3.13c.85,1.21,1.7,2.51,2.52,3.89.41.69.81,1.41,1.19,2.15a4.51,4.51,0,0,1,.66,2.54,2.19,2.19,0,0,1-.56,1.29,1.82,1.82,0,0,1-1.29.59,3.45,3.45,0,0,1-2.28-1.2l-3.22-3.33c-1-1-2-2.11-2.93-2.93a7.21,7.21,0,0,0-3.17-1.5c-2.16-.43-4-.37-5.22-.56a13,13,0,0,1-1.42-.25,1.71,1.71,0,0,1-.48-.15s.68.11,1.92.2a44.84,44.84,0,0,1,5.27.4,7.48,7.48,0,0,1,3.37,1.52c1,.85,2,1.9,3,2.94l3.22,3.29a3.07,3.07,0,0,0,1.92,1,1.46,1.46,0,0,0,1.34-1.42,4,4,0,0,0-.6-2.25c-.37-.72-.77-1.43-1.17-2.12-.81-1.37-1.65-2.67-2.47-3.88a17.1,17.1,0,0,0-2.73-3.08,14.48,14.48,0,0,0-2.85-2.16,9.67,9.67,0,0,0-5-1A16.56,16.56,0,0,0,177.51,189.73Z" style="fill:#eb996e"/><path d="M179.94,171.87a10.62,10.62,0,0,1-3.64,1.48,8.45,8.45,0,0,1-3.91.38c0-.15,1.72-.32,3.78-.89A24.87,24.87,0,0,1,179.94,171.87Z" style="fill:#eb996e"/><path d="M202.55,254.5l-4.3-25.91-18,3.32s.94,35.32,1.8,44c1.39,14.08,8.36,29,19,26.36,9.93-2.47,21.66-23.22,21.66-23.22Z" style="fill:#ffbe9d"/><path d="M292.88,108.48c.69,1.12,2.5.91,3.4,0a7,7,0,0,0,1.37-3.63,5.76,5.76,0,0,1,1.56-3.52c1-.85,2.87-.73,3.3.51-.8-2.13,1.74-4.63,3.85-3.78a4.51,4.51,0,0,1,8.92.06,3.07,3.07,0,0,1,5.25,2.73,4.18,4.18,0,0,1,2.91,6.19,4,4,0,0,1,1.87,7.29,3.52,3.52,0,0,1-3.38,4.86,5.57,5.57,0,0,1-7.61,1.93A16.16,16.16,0,0,1,299,119.15" style="fill:#263238"/><path d="M293.94,122.23a6.23,6.23,0,0,0-6-5.92l-33.57-6.08c-10.64-.39-16.77,13.1-16.71,23.75.06,11.83.61,26.27,2.61,35,4,17.48,17.72,18.8,17.72,18.8s.13,5.48.5,13.18a18.65,18.65,0,0,0,20.09,17.7h0a18.64,18.64,0,0,0,17.17-19Z" style="fill:#ffbe9d"/><path d="M243.62,146.57a2.27,2.27,0,0,0,2.34,2.14,2.18,2.18,0,0,0,2.2-2.21,2.28,2.28,0,0,0-2.34-2.14A2.18,2.18,0,0,0,243.62,146.57Z" style="fill:#263238"/><path d="M241.58,140.12c.3.28,1.93-1.11,4.37-1.27s4.31.93,4.56.62c.12-.15-.2-.66-1-1.17a6.18,6.18,0,0,0-3.67-.87,6,6,0,0,0-3.46,1.39C241.65,139.44,241.44,140,241.58,140.12Z" style="fill:#263238"/><path d="M266.45,145.88a2.27,2.27,0,0,0,2.34,2.13,2.17,2.17,0,0,0,2.2-2.2,2.27,2.27,0,0,0-2.34-2.14A2.18,2.18,0,0,0,266.45,145.88Z" style="fill:#263238"/><path d="M265.67,140.07c.3.28,1.94-1.11,4.37-1.27s4.31.94,4.56.62c.12-.14-.2-.65-1-1.17a6.26,6.26,0,0,0-3.67-.86,6,6,0,0,0-3.46,1.38C265.74,139.4,265.52,140,265.67,140.07Z" style="fill:#263238"/><path d="M258.06,158.77c0-.14-1.53-.3-4-.44-.63,0-1.23-.11-1.36-.52a3.19,3.19,0,0,1,.29-1.88q.72-2.33,1.52-4.87c2.09-6.93,3.56-12.61,3.28-12.69s-2.2,5.47-4.3,12.4L252,155.66a3.67,3.67,0,0,0-.15,2.47A1.58,1.58,0,0,0,253,159,4.48,4.48,0,0,0,254,159C256.53,159,258.06,158.91,258.06,158.77Z" style="fill:#263238"/><path d="M258,187.75a45.09,45.09,0,0,0,23.24-7.94s-5.14,12.56-22.94,12.12Z" style="fill:#eb996e"/><path d="M264.08,133.8c.28.65,2.7.17,5.58.31s5.26.77,5.59.15c.15-.29-.29-.89-1.27-1.47a9.46,9.46,0,0,0-4.22-1.16,9.19,9.19,0,0,0-4.29.81C264.44,132.94,264,133.49,264.08,133.8Z" style="fill:#263238"/><path d="M242.08,134.14c.46.53,2.1-.16,4.12-.33s3.76.12,4.11-.49c.16-.29-.15-.83-.93-1.3a6,6,0,0,0-6.64.66C242.06,133.3,241.87,133.89,242.08,134.14Z" style="fill:#263238"/><path d="M250.07,109.92c-1,2.19,3.24,6.24,5.54,7s5.28.37,6.52,2.46c1.42,2.37-1.47,6.2,3.33,8.78,1.52.81,3.73-.9,5,.26,1.57,1.44-.48,3.92-.41,6,.13,4.12,7.65,4.45,8.15,8.54.31,2.58-2.57,5-1.57,7.42s5.14,2.24,6.16,4.68c1.31,3.15-4,5.87-3.35,9.21s6.2,3.31,7.31,6.49c.95,2.72-2.11,5.69-1.07,8.37,1.19,3.07,6.37,2.62,7.76,5.6,1.68,3.6-4,7.75-2.08,11.22.64,1.16,2.12,1.57,3,2.57,2.82,3.24,2.57,10.3-.34,13.13l2.08,0a18.92,18.92,0,0,0,15.63-8.74h0l1.73,4c5.54-1.76,9.86-5.39,14.3-9.12a8.91,8.91,0,0,1,8.06-1.76l1.23.33c3.71.28,8.57-1.56,11.67-3.63-4.09-.82-6.29-5.28-7.31-9.32s-1.64-8.55-4.7-11.39c-3.31-3.08-9.05-3.77-10.57-8-1.2-3.34,1-7.15-.05-10.53s-5.1-5.09-6.65-8.32c-2.11-4.4.94-10.22-1.75-14.29-2.91-4.43-10.72-3.78-12.93-8.6-1.21-2.67-.23-6.28-2.33-8.32-1.69-1.63-4.56-1.36-6.33-2.9-2.6-2.25-1.33-6.88-3.59-9.47-3.05-3.5-9.31-.41-13.23-2.9-2.47-1.57-3.29-4.95-5.73-6.56-3.31-2.2-7.65-.22-11.4,1.09-2.9,1-5.95,1.59-8.77,2.83s-5.46,3.28-6.46,6.19.25,6.67,3.16,7.66" style="fill:#263238"/><path d="M343.27,178.65a1.49,1.49,0,0,1,.29.25c.19.18.47.44.81.8a10.24,10.24,0,0,1,1.18,1.44,5.48,5.48,0,0,1,1,2.35,3.93,3.93,0,0,1-.92,3,2.65,2.65,0,0,1-1.63.9,2.6,2.6,0,0,1-1.92-.58,6,6,0,0,1-1.68-4,44,44,0,0,1,0-4.86c.09-1.7.24-3.48.48-5.32.12-.92.27-1.86.43-2.81a11,11,0,0,0,.18-2.87,3.12,3.12,0,0,0-1.32-2.42,4.66,4.66,0,0,0-2.89-.53,28.7,28.7,0,0,1-3.26.16,4,4,0,0,1-3.07-1.47,5.89,5.89,0,0,1-1.07-3.34,17.94,17.94,0,0,1,.27-3.51,13.11,13.11,0,0,0,.11-3.48,4.21,4.21,0,0,0-1.67-2.89,19.81,19.81,0,0,0-3.26-1.62,6.24,6.24,0,0,1-2.87-2.56c-1.29-2.33-1.27-5.06-1.22-7.62a22.72,22.72,0,0,0-.19-3.8,7.73,7.73,0,0,0-1.33-3.4c-1.51-2-3.94-2.83-6.15-3.83a16.84,16.84,0,0,1-3.22-1.77,6.08,6.08,0,0,1-2.18-2.94,18.85,18.85,0,0,1-.51-3.49,4.35,4.35,0,0,0-1.25-2.9,6,6,0,0,0-2.92-1.18,16.05,16.05,0,0,1-3.18-.78,4.33,4.33,0,0,1-2.35-2.22,9.13,9.13,0,0,1-.63-3c-.14-2-.09-4-1-5.54a7.64,7.64,0,0,0-4-3.16,14.31,14.31,0,0,0-4.68-.9c-1.52-.08-3-.06-4.31-.12a19.48,19.48,0,0,1-3.75-.44,10.64,10.64,0,0,1-3-1.18,7,7,0,0,1-3-3.16,4,4,0,0,1-.39-1.48,9.47,9.47,0,0,0,.48,1.43,7,7,0,0,0,3,3A10.39,10.39,0,0,0,279.63,98a20,20,0,0,0,3.71.39c1.34,0,2.78,0,4.32.08a14.83,14.83,0,0,1,4.79.88,8,8,0,0,1,4.21,3.31c1,1.7.93,3.76,1.09,5.71a8.93,8.93,0,0,0,.6,2.89,3.89,3.89,0,0,0,2.12,2,16.53,16.53,0,0,0,3.1.74,6.37,6.37,0,0,1,3.15,1.28,4.78,4.78,0,0,1,1.41,3.2,19.61,19.61,0,0,0,.5,3.4,5.67,5.67,0,0,0,2,2.69,15.69,15.69,0,0,0,3.13,1.7c1.11.5,2.26,1,3.37,1.57a9,9,0,0,1,3,2.42,8.09,8.09,0,0,1,1.43,3.62,22.17,22.17,0,0,1,.2,3.9c-.06,2.56,0,5.2,1.15,7.35a5.66,5.66,0,0,0,2.65,2.35,20.48,20.48,0,0,1,3.34,1.68,4.68,4.68,0,0,1,1.85,3.23,12.78,12.78,0,0,1-.11,3.61,17.55,17.55,0,0,0-.27,3.43,5.49,5.49,0,0,0,.95,3.06,3.58,3.58,0,0,0,2.73,1.3,28.67,28.67,0,0,0,3.2-.15,5.1,5.1,0,0,1,3.17.62,3.55,3.55,0,0,1,1.5,2.74,11.35,11.35,0,0,1-.2,3c-.17,1-.31,1.87-.44,2.79-.25,1.83-.42,3.6-.51,5.29a43.52,43.52,0,0,0-.07,4.81,5.84,5.84,0,0,0,1.53,3.81,2.23,2.23,0,0,0,3.18-.27,3.69,3.69,0,0,0,.91-2.83,5.43,5.43,0,0,0-.89-2.3,11.94,11.94,0,0,0-1.12-1.45l-.77-.83A1.78,1.78,0,0,1,343.27,178.65Z" style="fill:#263238"/><path d="M304.57,204.25l.48-.21c.32-.14.8-.33,1.39-.63a5.43,5.43,0,0,0,1.89-1.52,3,3,0,0,0,.35-3.08,2.45,2.45,0,0,0-1.5-1.09c-.66-.21-1.39-.29-2.14-.55a2.7,2.7,0,0,1-1.06-.63,2,2,0,0,1-.51-1.2,5,5,0,0,1,.89-2.48,5.71,5.71,0,0,0,.87-2.52,5.23,5.23,0,0,0-.52-2.75,5.12,5.12,0,0,0-5.07-2.71l-.21,0,0-.22a7.24,7.24,0,0,1,1.44-4.42,26.87,26.87,0,0,0,2.56-4.08,6.36,6.36,0,0,0,.55-2.35,3.3,3.3,0,0,0-.74-2.24c-1.08-1.28-3-1.57-4.61-2.34a4,4,0,0,1-2.12-1.91,3.93,3.93,0,0,1,0-2.9c.59-1.82,1.78-3.45,1.72-5.3a4.18,4.18,0,0,0-1.07-2.49,9.11,9.11,0,0,0-2.21-1.81c-1.65-1-3.6-1.7-5.22-3a5.4,5.4,0,0,1-2-3.22,8.06,8.06,0,0,1,.36-3.73c.33-1.18.75-2.31,1-3.46a6.14,6.14,0,0,0,.14-1.7,3.58,3.58,0,0,0-.53-1.54,4.94,4.94,0,0,0-2.69-1.85,19.93,19.93,0,0,1-3.22-1.27,4.09,4.09,0,0,1-2-2.79,8.52,8.52,0,0,1,.19-3.35c.22-1.06.49-2.09.62-3.12a5.86,5.86,0,0,0-.25-3,4.71,4.71,0,0,0-1.88-2.12,9.92,9.92,0,0,0-2.63-1.1c-1.83-.49-3.71-.64-5.43-1.27A6.93,6.93,0,0,1,269,117a7,7,0,0,1-1.55-2c-.77-1.48-1.18-3-1.8-4.3a7.9,7.9,0,0,0-2.5-3.17,7.61,7.61,0,0,0-6.2-1.35,8.07,8.07,0,0,0-3.65,1.91c-.7.66-1,1.09-1,1.07a5.26,5.26,0,0,1,.93-1.14,7.88,7.88,0,0,1,3.67-2,7.79,7.79,0,0,1,6.42,1.31,8.12,8.12,0,0,1,2.63,3.25c.65,1.35,1.07,2.86,1.83,4.28a6.65,6.65,0,0,0,1.47,1.92,6.94,6.94,0,0,0,2.21,1.24c1.65.6,3.51.73,5.4,1.22a10.27,10.27,0,0,1,2.76,1.14,5.2,5.2,0,0,1,2.06,2.33,6.26,6.26,0,0,1,.3,3.18c-.13,1.07-.4,2.11-.62,3.16a8.19,8.19,0,0,0-.18,3.15,3.59,3.59,0,0,0,1.79,2.46,20.51,20.51,0,0,0,3.14,1.23,5.4,5.4,0,0,1,2.95,2,4,4,0,0,1,.61,1.77,7.58,7.58,0,0,1-.14,1.85c-.24,1.21-.66,2.34-1,3.5a7.61,7.61,0,0,0-.35,3.49,4.92,4.92,0,0,0,1.86,2.92c1.53,1.27,3.44,1.93,5.16,3a9.6,9.6,0,0,1,2.34,1.92,4.74,4.74,0,0,1,1.18,2.79c.05,2.11-1.21,3.77-1.75,5.48a3.51,3.51,0,0,0,0,2.55,3.61,3.61,0,0,0,1.87,1.67c.8.37,1.66.63,2.5,1a5.64,5.64,0,0,1,2.28,1.5,3.77,3.77,0,0,1,.84,2.56,6.9,6.9,0,0,1-.6,2.52,27.28,27.28,0,0,1-2.61,4.14,6.78,6.78,0,0,0-1.39,4.15l-.23-.19a5.5,5.5,0,0,1,5.45,3,5.65,5.65,0,0,1-.4,5.59,4.86,4.86,0,0,0-.87,2.3,1.8,1.8,0,0,0,1.36,1.58c.7.25,1.44.35,2.12.57a2.7,2.7,0,0,1,1.63,1.23,2.73,2.73,0,0,1,.23,1.82,3.55,3.55,0,0,1-.64,1.48,5.54,5.54,0,0,1-2,1.52A12.19,12.19,0,0,1,304.57,204.25Z" style="fill:#455a64"/><path d="M333,195a6.52,6.52,0,0,0,.73-1.39,5.67,5.67,0,0,0-.28-4.33,5.12,5.12,0,0,0-2.21-2.24,14.36,14.36,0,0,1-1.6-1,2.7,2.7,0,0,1-1.09-1.76c-.21-1.51.83-2.85.8-4.36a2.49,2.49,0,0,0-1.05-1.94,10.69,10.69,0,0,0-2.23-1.17,10.08,10.08,0,0,1-2.4-1.31,3.93,3.93,0,0,1-1.44-2.5c-.32-2,.31-4,.35-6a4.72,4.72,0,0,0-.73-2.87,5.5,5.5,0,0,0-2.53-1.75,29,29,0,0,1-3.1-1.31,3.89,3.89,0,0,1-2.13-2.79,13.34,13.34,0,0,1,.17-3.58,4.17,4.17,0,0,0-.63-3.25,7.12,7.12,0,0,0-3.06-1.72,6.2,6.2,0,0,1-3.19-2.14,5.73,5.73,0,0,1-.67-3.86,23.24,23.24,0,0,1,1-3.8,9.77,9.77,0,0,0,.5-3.77,4.37,4.37,0,0,0-1.92-3.1,11.21,11.21,0,0,0-3.66-1.27c-1.29-.25-2.6-.46-3.87-.83a7.64,7.64,0,0,1-3.47-1.92,8.85,8.85,0,0,1-2-3.36c-.78-2.46-1-5-1.5-7.31a13.1,13.1,0,0,0-1.14-3.33,6.3,6.3,0,0,0-2.31-2.41c-2-1.07-4.35-.79-6.52-.69a15.06,15.06,0,0,1-3.29-.1,6.61,6.61,0,0,1-3-1.25c-1.69-1.33-2.64-3.17-3.74-4.7a11.85,11.85,0,0,0-1.8-2.1,10.32,10.32,0,0,0-2.19-1.46,12.67,12.67,0,0,0-9.12-.53,18,18,0,0,0-6.14,3.47,29,29,0,0,0-3.2,3.16l-.76.9c-.17.2-.27.3-.27.3a1.82,1.82,0,0,1,.22-.33c.16-.22.4-.53.73-.93a25.47,25.47,0,0,1,3.15-3.25,18.09,18.09,0,0,1,6.18-3.6A13,13,0,0,1,268,102a10.44,10.44,0,0,1,2.28,1.5,12.1,12.1,0,0,1,1.87,2.16c1.13,1.55,2.09,3.35,3.68,4.59a6.24,6.24,0,0,0,2.78,1.15,14.7,14.7,0,0,0,3.19.09c1.1-.06,2.22-.16,3.37-.11a7.69,7.69,0,0,1,3.41.83,6.79,6.79,0,0,1,2.51,2.59,13.59,13.59,0,0,1,1.2,3.47,70,70,0,0,0,1.5,7.24,8.25,8.25,0,0,0,1.85,3.16,7,7,0,0,0,3.25,1.79c1.23.36,2.53.56,3.83.82a11.38,11.38,0,0,1,3.84,1.35,4.86,4.86,0,0,1,2.16,3.46,10.42,10.42,0,0,1-.52,4,22.23,22.23,0,0,0-.95,3.71,5.22,5.22,0,0,0,.59,3.52,5.76,5.76,0,0,0,2.94,2,7.46,7.46,0,0,1,3.27,1.88,3.54,3.54,0,0,1,.75,1.77,8.16,8.16,0,0,1,0,1.85,13,13,0,0,0-.19,3.43,3.43,3.43,0,0,0,1.89,2.47,26.56,26.56,0,0,0,3,1.29,6.09,6.09,0,0,1,2.72,1.92A5.28,5.28,0,0,1,323,167c-.06,2.1-.68,4.06-.39,5.91a3.56,3.56,0,0,0,1.29,2.27,9.62,9.62,0,0,0,2.31,1.27,10.81,10.81,0,0,1,2.3,1.23,2.86,2.86,0,0,1,1.16,2.21c0,1.68-1,3-.85,4.33a2.46,2.46,0,0,0,1,1.59,14.54,14.54,0,0,0,1.55,1,5.19,5.19,0,0,1,2.27,2.36,5.73,5.73,0,0,1,.2,4.46A4,4,0,0,1,333,195Z" style="fill:#455a64"/><path d="M261.19,166.7a3.19,3.19,0,0,1,3.93-4.74,5.11,5.11,0,0,1,1.95,1.83,3.43,3.43,0,0,1,.74,2.63,2.76,2.76,0,0,1-1.45,1.66,4.23,4.23,0,0,1-3.39.29,3.69,3.69,0,0,1-2.31-2.45" style="fill:#eb996e"/><path d="M266.92,161.48c.2.05.28.64,0,1.54a6.2,6.2,0,0,1-5.59,4.13c-.94,0-1.48-.25-1.47-.45,0-.44,2.1-.61,4-2S266.5,161.37,266.92,161.48Z" style="fill:#263238"/><path d="M203.72,229.44a4.54,4.54,0,0,1,1.15-4.43,6.75,6.75,0,0,1,4.3-1.9,7.32,7.32,0,0,1,4.1.75,5,5,0,0,1,1.37,8.06,7.1,7.1,0,0,1-4.7,2.16,5.83,5.83,0,0,1-4.19-1.17,5.06,5.06,0,0,1-2-3.47" style="fill:#3b82f6"/><path d="M188.75,235c-5.92,1.56-12.41-4.63-14.21-8.85a1.5,1.5,0,0,1-.07-1.39,1.53,1.53,0,0,1,1.41-.44A14.08,14.08,0,0,1,188.75,235" style="fill:#455a64"/><path d="M181.73,232.28a4.5,4.5,0,0,1,1.15-4.42,6.79,6.79,0,0,1,4.3-1.91,7.36,7.36,0,0,1,4.1.76,5,5,0,0,1,1.37,8,7.06,7.06,0,0,1-4.71,2.16,5.85,5.85,0,0,1-4.18-1.16,5,5,0,0,1-2-3.48" style="fill:#3b82f6"/><path d="M212.87,231.1c-.2-3.14,1.65-7.13,3.29-9.81a15.44,15.44,0,0,1,7-6.09.66.66,0,0,1,1.06.42,11.07,11.07,0,0,1-11.34,15.48" style="fill:#455a64"/><path d="M234.34,224a29.48,29.48,0,0,0,2.82-4.66,10,10,0,0,0,.93-5.31.93.93,0,0,0-.35-.71.94.94,0,0,0-.77,0,16.67,16.67,0,0,0-11.74,15.53l-.1.9a12.85,12.85,0,0,0,9.61.66,19.89,19.89,0,0,0,7.11-3.47,10.65,10.65,0,0,0,4-6.69A14.24,14.24,0,0,0,234.34,224Z" style="fill:#455a64"/><path d="M196.48,221.67c-3-2.66-7.08-3.93-11.07-4.54A15.19,15.19,0,0,0,200.15,233l.2-.45C201.39,228.61,199.53,224.33,196.48,221.67Z" style="fill:#455a64"/><path d="M176.36,232.24s7,24,20.9,32.5c18.16,11.1,45.46-3.67,47.78-9.48s6.38-29.4,6.38-29.4Z" style="fill:#e0e0e0"/><path d="M176.36,232.24l.35,0,1.07-.11,4.18-.38,15.66-1.41,53.78-4.69.33,0-.06.32c-1.28,7.26-2.68,14.94-4.5,22.78-.4,1.66-.79,3.3-1.29,4.92-.12.41-.26.81-.4,1.21-.08.2-.14.4-.22.6s-.2.4-.31.59a10.75,10.75,0,0,1-1.67,1.94,36.84,36.84,0,0,1-8.2,5.41,56.47,56.47,0,0,1-8.81,3.5,48.75,48.75,0,0,1-8.89,1.87,33.51,33.51,0,0,1-16.56-1.94,29.53,29.53,0,0,1-11.48-8.91,60.69,60.69,0,0,1-6.62-10.06,86.08,86.08,0,0,1-3.82-8.25c-.94-2.31-1.56-4.15-2-5.4-.21-.62-.35-1.1-.44-1.42s-.13-.51-.13-.5a4.46,4.46,0,0,1,.18.48c.11.34.28.81.49,1.41.44,1.23,1.09,3.06,2.06,5.35a88.63,88.63,0,0,0,3.89,8.19,60.86,60.86,0,0,0,6.64,10A29.36,29.36,0,0,0,201,266.38a33.13,33.13,0,0,0,16.35,1.86,53.45,53.45,0,0,0,17.52-5.35,35.9,35.9,0,0,0,8.08-5.33,10.92,10.92,0,0,0,1.58-1.83l.27-.52c.08-.19.14-.39.21-.58.13-.39.28-.78.39-1.18.49-1.6.88-3.24,1.29-4.89,1.8-7.82,3.22-15.5,4.5-22.75l.27.3-53.61,4.44-15.73,1.26-4.24.33-1.11.08Z" style="fill:#263238"/><path d="M194.75,259.53a4.85,4.85,0,0,1-.85-.75c-.52-.5-1.25-1.26-2.13-2.23a69.62,69.62,0,0,1-6.23-8.07,68.91,68.91,0,0,1-5-8.88c-.55-1.19-1-2.16-1.23-2.84a5.07,5.07,0,0,1-.36-1.08,4.36,4.36,0,0,1,.55,1c.31.65.78,1.6,1.37,2.75A90.16,90.16,0,0,0,186,248.2a91.76,91.76,0,0,0,6.08,8.11c.83,1,1.52,1.79,2,2.33A4.49,4.49,0,0,1,194.75,259.53Z" style="fill:#fff"/><path d="M247.52,229.89a3.72,3.72,0,0,1-.7.13l-2,.27c-1.73.24-4.24.54-7.35.89-6.21.7-14.81,1.55-24.32,2.28s-18.15,1.19-24.39,1.44c-3.13.12-5.65.21-7.4.24l-2,0a5.47,5.47,0,0,1-.71,0,3,3,0,0,1,.7-.08l2-.13,7.39-.41c6.24-.35,14.86-.87,24.37-1.59s18.1-1.52,24.32-2.13l7.37-.72,2-.18A3.5,3.5,0,0,1,247.52,229.89Z" style="fill:#fff"/><path d="M317.12,257.44l-5,25.93L260.58,256,249,268.24s49.06,44.87,59.34,53.07,24.27-1.27,28.36-16.49,9.52-34.87,11.07-47.64Z" style="fill:#ffbe9d"/><path d="M265,259.2s-14.89-11.3-20.18-10.15a20.76,20.76,0,0,0-4.56,1.47,13,13,0,0,1-5.6,1.35c-1.95,0-4.42,0-6.81-.12-4.58-.21-6,1-6.36,2.76a2.85,2.85,0,0,0,2.55,3.46,52.6,52.6,0,0,1,8.81,1.23c2.76.9-.47.33-3.92,2.57s-17.49,2.7-17.49,2.7l-7.64-5.84a2.56,2.56,0,0,0-3.93,3l.06.12-.7-.71a2.16,2.16,0,0,0-3.5,2.4.41.41,0,0,1,.05.09l6.22,6,9.44,3.91,16.34-1.61s12-4.37,14.27-5.06,9.91,1.48,15.75,8Z" style="fill:#ffbe9d"/><path d="M324.52,305.94c-.08,0-.51-1.4-1.35-3.63a68.62,68.62,0,0,0-3.88-8.49,66.78,66.78,0,0,0-5.06-7.84c-1.43-1.92-2.39-3.05-2.33-3.11a4.13,4.13,0,0,1,.76.73c.46.48,1.1,1.22,1.86,2.15a53.41,53.41,0,0,1,5.22,7.82,52.77,52.77,0,0,1,3.77,8.61c.38,1.14.66,2.08.81,2.73A3.44,3.44,0,0,1,324.52,305.94Z" style="fill:#eb996e"/><path d="M228,271.82a7.29,7.29,0,0,1-1.39.23c-.9.11-2.21.26-3.82.41-3.22.34-7.71.61-12.65.81a13.52,13.52,0,0,1-3.66-.2,10,10,0,0,1-3.14-1.4,21.14,21.14,0,0,1-4.2-3.9c-1.05-1.24-1.85-2.28-2.41-3a7.25,7.25,0,0,1-.84-1.14,6.24,6.24,0,0,1,1,1l2.54,2.88a21.49,21.49,0,0,0,4.19,3.74,9.66,9.66,0,0,0,3,1.31,13.66,13.66,0,0,0,3.53.17c5-.2,9.4-.41,12.64-.65l3.83-.25A7.2,7.2,0,0,1,228,271.82Z" style="fill:#eb996e"/><path d="M224,271.43a3.67,3.67,0,0,1-1,.07l-2.64,0c-2.23,0-5.34,0-8.85-.1h-.05c-.5-.11-1-.23-1.57-.38a11.49,11.49,0,0,1-2.69-1,7.74,7.74,0,0,1-2.08-1.74c-1.08-1.31-2-2.5-2.77-3.52s-1.34-1.87-1.73-2.47a4.44,4.44,0,0,1-.54-1,5.53,5.53,0,0,1,.71.85c.43.56,1.06,1.38,1.85,2.36l2.84,3.44a8.61,8.61,0,0,0,4.54,2.6c.53.14,1.06.26,1.55.37h-.05c3.51.08,6.62.18,8.85.28l2.63.13A3.16,3.16,0,0,1,224,271.43Z" style="fill:#eb996e"/><path d="M242.91,261c0,.14-2-.36-4.41-.69s-4.44-.36-4.45-.51a11.87,11.87,0,0,1,4.52,0A11.75,11.75,0,0,1,242.91,261Z" style="fill:#eb996e"/><path d="M306.78,123.22a1.61,1.61,0,0,1-.81,0,4.76,4.76,0,0,1-2-.85,4.84,4.84,0,0,1-1.86-2.7c-.33-1.2-.28-2.58-.7-3.82a2.65,2.65,0,0,0-1.12-1.43,6.11,6.11,0,0,0-1.71-.6,7,7,0,0,1-1.66-.59,3.3,3.3,0,0,1-1.16-1,6.5,6.5,0,0,1-.89-2c-.13-.5-.18-.78-.14-.79a3,3,0,0,1,.33.72,8.18,8.18,0,0,0,1,1.86,3.15,3.15,0,0,0,1.07.89,6.73,6.73,0,0,0,1.57.5,6.5,6.5,0,0,1,1.86.63,3.16,3.16,0,0,1,1.35,1.69c.47,1.41.38,2.76.67,3.88a4.6,4.6,0,0,0,1.63,2.53A6.31,6.31,0,0,0,306.78,123.22Z" style="fill:#455a64"/><path d="M325.49,106.68a1.13,1.13,0,0,1,.25.51,2.66,2.66,0,0,1-.06,1.64,2.56,2.56,0,0,1-1.86,1.72,2.89,2.89,0,0,1-3.06-1.22l.38,0a5.7,5.7,0,0,1-3.6,3.55,5.21,5.21,0,0,1-2.91.13,5.83,5.83,0,0,1-2.66-1.53,5.62,5.62,0,0,1-1.52-2.83l.42.14a12.06,12.06,0,0,1-5.64,2.68,12.39,12.39,0,0,1-5-.06,10.77,10.77,0,0,1-3.11-1.16,5.56,5.56,0,0,1-.75-.48c-.17-.11-.25-.18-.24-.19a15.81,15.81,0,0,0,4.16,1.5,12.61,12.61,0,0,0,4.85-.06,11.73,11.73,0,0,0,5.39-2.62l.33-.29.09.44a5,5,0,0,0,1.39,2.56,5.29,5.29,0,0,0,2.41,1.4,4.82,4.82,0,0,0,2.64-.1,5.31,5.31,0,0,0,3.35-3.22l.14-.43.24.39a2.55,2.55,0,0,0,2.63,1.11,2.36,2.36,0,0,0,1.71-1.48,2.77,2.77,0,0,0,.16-1.52A4.5,4.5,0,0,1,325.49,106.68Z" style="fill:#455a64"/><path d="M316.32,96.26s.17,0,.37.21a1.37,1.37,0,0,1,.3,1.17,1.8,1.8,0,0,1-1.34,1.3,4,4,0,0,1-2.39-.23l.29-.31c.69,1.54-.27,3.6-2,4.49a9.34,9.34,0,0,1-4.13.87,9.44,9.44,0,0,1-3.43-.35,3.62,3.62,0,0,1-1.85-1.42c-.3-.48-.32-.8-.29-.8s.13.28.45.69a3.78,3.78,0,0,0,1.81,1.18,9.68,9.68,0,0,0,3.29.22,9.13,9.13,0,0,0,3.9-.85c1.51-.79,2.34-2.6,1.8-3.85l-.22-.5.51.2a3.78,3.78,0,0,0,2.13.3,1.54,1.54,0,0,0,1.17-1,1.29,1.29,0,0,0-.14-1C316.44,96.35,316.3,96.29,316.32,96.26Z" style="fill:#455a64"/></g></svg>